<?xml version="1.0" encoding="utf-8"?>
<!-- Generator: Adobe Illustrator 25.0.0, SVG Export Plug-In . SVG Version: 6.00 Build 0)  -->
<svg version="1.1" id="Capa_1" xmlns="http://www.w3.org/2000/svg" xmlns:xlink="http://www.w3.org/1999/xlink" x="0px" y="0px"
	 viewBox="0 0 340.16 198.43" style="enable-background:new 0 0 340.16 198.43;" xml:space="preserve">
<style type="text/css">
	.st0{fill:#43B7E1;}
</style>
<g>
	<g>
		<path class="st0" d="M183.73,79.89l-1.44-5.21l-6.46,0l-1.42,5.21l-3.74,0l5.58-19.51l5.6,0l5.66,19.51L183.73,79.89z
			 M176.75,71.27l4.59,0l-2.31-8.32L176.75,71.27z"/>
		<path class="st0" d="M189.85,85.35l-0.01-3.3c1.39,0.43,2.73,0.65,4.02,0.65c0.85,0,1.53-0.11,2.06-0.34
			c0.52-0.23,0.91-0.59,1.16-1.09c0.25-0.5,0.37-1.15,0.37-1.97l0-0.96l-0.18,0c-0.38,0.52-0.85,0.92-1.41,1.21
			c-0.57,0.29-1.2,0.43-1.91,0.43c-0.92,0-1.75-0.25-2.51-0.76c-0.76-0.51-1.36-1.29-1.82-2.34c-0.45-1.05-0.68-2.35-0.68-3.91
			c-0.01-2.51,0.6-4.43,1.82-5.75c1.22-1.32,3.05-1.98,5.48-1.98c0.85,0,1.71,0.07,2.6,0.2c0.89,0.14,1.67,0.33,2.35,0.59l0.03,12.5
			c0,1.73-0.25,3.14-0.76,4.24c-0.51,1.09-1.28,1.9-2.32,2.41c-1.03,0.51-2.35,0.77-3.96,0.77
			C192.62,85.95,191.18,85.75,189.85,85.35z M196.5,76.33c0.37-0.15,0.68-0.36,0.94-0.65l-0.01-7.07c-0.47-0.12-0.98-0.18-1.52-0.18
			c-1.07,0-1.87,0.33-2.4,1c-0.53,0.66-0.8,1.72-0.79,3.18c0,1.45,0.23,2.47,0.68,3.06c0.45,0.59,1.1,0.88,1.97,0.88
			C195.75,76.55,196.13,76.48,196.5,76.33z"/>
		<path class="st0" d="M215.54,73.9l-7.81,0c0.04,0.77,0.19,1.38,0.44,1.83c0.26,0.44,0.65,0.76,1.2,0.96
			c0.54,0.2,1.28,0.3,2.21,0.3c0.98,0,2.06-0.15,3.24-0.46l0.01,3.15c-1.25,0.33-2.51,0.49-3.77,0.49c-1.64,0-2.98-0.26-4.02-0.78
			c-1.04-0.52-1.81-1.33-2.32-2.43c-0.5-1.1-0.76-2.53-0.76-4.28c0-1.58,0.23-2.93,0.69-4.04c0.46-1.11,1.14-1.95,2.04-2.52
			c0.89-0.57,1.97-0.86,3.24-0.86c1.82,0,3.21,0.64,4.16,1.93c0.96,1.29,1.43,3.16,1.44,5.62L215.54,73.9z M208.29,68.72
			c-0.36,0.55-0.55,1.46-0.57,2.74l4.32,0c-0.03-1.29-0.21-2.21-0.56-2.75c-0.35-0.54-0.87-0.81-1.58-0.81
			C209.19,67.9,208.65,68.17,208.29,68.72z"/>
		<path class="st0" d="M218.16,65.46l3.09,0l0.26,1.46l0.18,0c0.47-0.54,1.02-0.96,1.67-1.25c0.64-0.29,1.34-0.44,2.1-0.44
			c1.36,0,2.43,0.46,3.21,1.37c0.79,0.91,1.18,2.35,1.18,4.3l0.02,8.98l-3.76,0l-0.02-8.73c0-0.83-0.16-1.43-0.46-1.77
			c-0.31-0.35-0.76-0.52-1.35-0.52c-0.45,0-0.88,0.1-1.3,0.3c-0.42,0.2-0.77,0.5-1.04,0.88l0.02,9.83l-3.76,0L218.16,65.46z"/>
		<path class="st0" d="M234.25,78.29c-1.14-1.24-1.72-3.11-1.72-5.6c-0.01-2.5,0.6-4.37,1.81-5.61c1.21-1.23,2.96-1.85,5.26-1.85
			c1.07,0,2.03,0.11,2.88,0.33l0.01,3.33c-0.82-0.18-1.61-0.28-2.36-0.28c-0.87,0-1.58,0.14-2.12,0.41c-0.54,0.27-0.95,0.71-1.2,1.3
			c-0.26,0.59-0.39,1.37-0.38,2.33c0,1.45,0.28,2.5,0.84,3.14c0.56,0.64,1.41,0.96,2.57,0.96c0.4,0,0.81-0.04,1.22-0.11
			c0.42-0.07,0.9-0.2,1.46-0.36l0.01,3.33c-0.99,0.36-2.08,0.54-3.27,0.54C237.06,80.15,235.4,79.53,234.25,78.29z"/>
		<path class="st0" d="M245.34,62.79c-0.39-0.38-0.58-0.92-0.59-1.62c0-0.71,0.19-1.26,0.57-1.63c0.38-0.38,0.97-0.57,1.75-0.57
			c0.78,0,1.36,0.19,1.74,0.57c0.38,0.38,0.58,0.92,0.58,1.63c0,0.7-0.19,1.24-0.57,1.62c-0.38,0.38-0.96,0.57-1.74,0.57
			C246.31,63.36,245.72,63.17,245.34,62.79z M245.23,79.87l-0.03-14.42l3.76,0L249,79.87L245.23,79.87z"/>
		<path class="st0" d="M260.28,65.81c0.86,0.39,1.5,1.02,1.92,1.9c0.42,0.88,0.63,2.08,0.63,3.59l0.02,8.57l-3.1,0l-0.26-1.42
			l-0.18,0c-0.38,0.57-0.86,1-1.44,1.27c-0.59,0.28-1.24,0.42-1.96,0.42c-0.86,0-1.61-0.17-2.24-0.52
			c-0.63-0.35-1.11-0.83-1.44-1.46c-0.33-0.63-0.5-1.36-0.5-2.19c0-1.38,0.42-2.45,1.28-3.2c0.86-0.76,2.21-1.2,4.06-1.33l2.09-0.2
			l0-0.18c0-0.67-0.1-1.19-0.29-1.57c-0.19-0.38-0.5-0.65-0.92-0.81c-0.42-0.16-0.99-0.24-1.72-0.24c-0.53,0-1.1,0.05-1.72,0.15
			c-0.62,0.1-1.21,0.24-1.77,0.44l-0.01-3.16c0.61-0.19,1.29-0.34,2.03-0.45c0.74-0.11,1.45-0.16,2.13-0.16
			C258.28,65.23,259.42,65.42,260.28,65.81z M258.21,76.99c0.35-0.15,0.67-0.38,0.95-0.69l-0.01-2.7l-1.72,0.15
			c-0.71,0.06-1.22,0.24-1.54,0.55c-0.32,0.3-0.48,0.73-0.48,1.27c0,0.54,0.15,0.94,0.44,1.23c0.29,0.28,0.71,0.42,1.27,0.42
			C257.5,77.21,257.86,77.14,258.21,76.99z"/>
	</g>
	<g>
		<path class="st0" d="M183.5,88.32l3.61,0l0.04,19.51l-3.86,0l-7.59-13.06l0.03,13.06l-3.61,0l-0.04-19.51l3.86,0l7.59,13.06
			L183.5,88.32z"/>
		<path class="st0" d="M198.57,93.76c0.86,0.39,1.5,1.02,1.92,1.9c0.42,0.88,0.63,2.08,0.63,3.59l0.02,8.57l-3.1,0l-0.26-1.42
			l-0.18,0c-0.38,0.57-0.86,1-1.44,1.27s-1.24,0.42-1.96,0.42c-0.86,0-1.61-0.17-2.24-0.52c-0.63-0.35-1.11-0.83-1.44-1.46
			c-0.33-0.63-0.5-1.36-0.5-2.19c0-1.38,0.42-2.45,1.28-3.2c0.86-0.76,2.21-1.2,4.06-1.33l2.09-0.2l0-0.18
			c0-0.67-0.1-1.19-0.29-1.57c-0.19-0.38-0.5-0.65-0.92-0.81c-0.42-0.16-0.99-0.24-1.72-0.24c-0.53,0-1.1,0.05-1.72,0.15
			c-0.62,0.1-1.21,0.24-1.77,0.44l-0.01-3.16c0.61-0.19,1.29-0.34,2.03-0.45c0.74-0.11,1.45-0.16,2.13-0.16
			C196.57,93.18,197.71,93.38,198.57,93.76z M196.5,104.95c0.35-0.15,0.67-0.38,0.95-0.69l-0.01-2.7l-1.72,0.15
			c-0.71,0.06-1.22,0.24-1.54,0.55c-0.32,0.3-0.48,0.73-0.48,1.27c0,0.54,0.15,0.94,0.44,1.23c0.29,0.28,0.71,0.42,1.27,0.42
			C195.79,105.17,196.15,105.09,196.5,104.95z"/>
		<path class="st0" d="M205.51,106.24c-1.14-1.24-1.72-3.11-1.72-5.6c-0.01-2.5,0.6-4.37,1.81-5.61c1.21-1.23,2.96-1.85,5.26-1.85
			c1.07,0,2.03,0.11,2.88,0.33l0.01,3.33c-0.82-0.18-1.61-0.28-2.36-0.28c-0.87,0-1.58,0.14-2.12,0.41c-0.54,0.27-0.95,0.71-1.2,1.3
			c-0.26,0.59-0.39,1.37-0.38,2.33c0,1.45,0.28,2.5,0.84,3.14c0.56,0.64,1.41,0.96,2.57,0.96c0.4,0,0.81-0.04,1.22-0.11
			c0.42-0.07,0.9-0.2,1.46-0.36l0.01,3.33c-0.99,0.36-2.08,0.54-3.27,0.54C208.32,108.1,206.66,107.48,205.51,106.24z"/>
		<path class="st0" d="M216.6,90.74c-0.39-0.38-0.58-0.92-0.59-1.62c0-0.71,0.19-1.26,0.57-1.63c0.38-0.38,0.97-0.57,1.75-0.57
			c0.78,0,1.36,0.19,1.74,0.57c0.38,0.38,0.58,0.92,0.58,1.63c0,0.7-0.19,1.24-0.57,1.62c-0.38,0.38-0.96,0.57-1.74,0.57
			C217.57,91.31,216.98,91.12,216.6,90.74z M216.49,107.82l-0.03-14.42l3.76,0l0.03,14.42L216.49,107.82z"/>
		<path class="st0" d="M225.98,107.27c-0.94-0.55-1.66-1.39-2.17-2.5c-0.51-1.11-0.76-2.48-0.77-4.12c0-2.48,0.54-4.34,1.62-5.6
			c1.09-1.25,2.63-1.88,4.64-1.88c2,0,3.55,0.63,4.64,1.88c1.1,1.26,1.65,3.11,1.65,5.56c0,1.64-0.25,3.02-0.75,4.14
			c-0.5,1.12-1.22,1.95-2.16,2.5c-0.94,0.55-2.05,0.83-3.36,0.83C228.03,108.1,226.91,107.82,225.98,107.27z M230.7,104.5
			c0.36-0.26,0.64-0.71,0.83-1.32c0.19-0.62,0.29-1.46,0.28-2.51c0-1.07-0.1-1.92-0.29-2.56c-0.19-0.63-0.47-1.08-0.84-1.34
			c-0.37-0.26-0.82-0.4-1.37-0.4c-0.55,0-1.01,0.13-1.37,0.4c-0.36,0.26-0.64,0.71-0.83,1.32c-0.19,0.62-0.29,1.46-0.28,2.52
			c0,1.07,0.1,1.92,0.29,2.55c0.19,0.63,0.47,1.07,0.83,1.34c0.36,0.26,0.82,0.4,1.38,0.4C229.88,104.9,230.34,104.76,230.7,104.5z"
			/>
		<path class="st0" d="M238.38,93.4l3.09,0l0.26,1.46l0.18,0c0.47-0.54,1.02-0.96,1.67-1.25s1.34-0.44,2.1-0.44
			c1.36,0,2.43,0.46,3.21,1.37c0.79,0.91,1.18,2.35,1.18,4.3l0.02,8.98l-3.76,0l-0.02-8.73c0-0.83-0.16-1.43-0.46-1.77
			c-0.31-0.35-0.76-0.52-1.35-0.52c-0.45,0-0.88,0.1-1.3,0.3c-0.42,0.2-0.77,0.5-1.04,0.88l0.02,9.83l-3.76,0L238.38,93.4z"/>
		<path class="st0" d="M261.25,93.75c0.86,0.39,1.5,1.02,1.92,1.9c0.42,0.88,0.63,2.08,0.63,3.59l0.02,8.57l-3.1,0l-0.26-1.42
			l-0.18,0c-0.38,0.57-0.86,1-1.44,1.27c-0.59,0.28-1.24,0.42-1.96,0.42c-0.86,0-1.61-0.17-2.24-0.52
			c-0.63-0.35-1.11-0.83-1.44-1.46c-0.33-0.63-0.5-1.36-0.5-2.19c0-1.38,0.42-2.45,1.28-3.2c0.86-0.76,2.21-1.2,4.06-1.33l2.09-0.2
			l0-0.18c0-0.67-0.1-1.19-0.29-1.57c-0.19-0.38-0.5-0.65-0.92-0.81c-0.42-0.16-0.99-0.24-1.72-0.24c-0.53,0-1.1,0.05-1.72,0.15
			c-0.62,0.1-1.21,0.24-1.77,0.44l-0.01-3.16c0.61-0.19,1.29-0.34,2.03-0.45c0.74-0.11,1.45-0.16,2.13-0.16
			C259.26,93.17,260.39,93.37,261.25,93.75z M259.18,104.94c0.35-0.15,0.67-0.38,0.95-0.69l-0.01-2.7l-1.72,0.15
			c-0.71,0.06-1.22,0.24-1.54,0.55c-0.32,0.3-0.48,0.73-0.48,1.27c0,0.54,0.15,0.94,0.44,1.23c0.29,0.28,0.71,0.42,1.27,0.42
			C258.47,105.15,258.83,105.08,259.18,104.94z"/>
		<path class="st0" d="M267.08,107.82l-0.04-21.3l3.76,0l0.04,21.3L267.08,107.82z"/>
		<path class="st0" d="M281.55,107.31c-0.79-0.5-1.43-1.28-1.9-2.35c-0.47-1.07-0.71-2.42-0.71-4.05c-0.01-2.52,0.59-4.44,1.78-5.77
			c1.19-1.32,2.93-1.98,5.21-1.98c0.53,0,1.03,0.04,1.49,0.11l-0.01-6.75l3.76,0l0.04,21.3l-3.15,0l-0.24-1.5l-0.18,0
			c-0.38,0.55-0.85,0.97-1.44,1.29c-0.58,0.31-1.24,0.47-1.98,0.47C283.24,108.06,282.34,107.81,281.55,107.31z M286.51,104.38
			c0.38-0.16,0.69-0.41,0.94-0.73l-0.01-7.13c-0.45-0.11-0.95-0.16-1.48-0.16c-1.1,0-1.91,0.33-2.44,1
			c-0.53,0.66-0.79,1.74-0.79,3.22c0,1.49,0.23,2.53,0.68,3.14c0.45,0.61,1.09,0.91,1.93,0.91
			C285.74,104.62,286.13,104.54,286.51,104.38z"/>
		<path class="st0" d="M304.99,101.82l-7.81,0c0.04,0.77,0.19,1.38,0.44,1.83c0.26,0.44,0.65,0.76,1.2,0.96
			c0.54,0.2,1.28,0.3,2.21,0.3c0.98,0,2.06-0.15,3.24-0.46l0.01,3.15c-1.25,0.33-2.51,0.49-3.77,0.49c-1.64,0-2.98-0.26-4.02-0.78
			c-1.04-0.52-1.81-1.33-2.32-2.43c-0.5-1.1-0.76-2.53-0.76-4.28c0-1.58,0.23-2.93,0.69-4.04c0.46-1.11,1.14-1.95,2.04-2.52
			c0.89-0.57,1.97-0.86,3.24-0.86c1.82,0,3.21,0.64,4.16,1.93c0.95,1.29,1.43,3.16,1.44,5.62L304.99,101.82z M297.73,96.65
			c-0.36,0.55-0.55,1.46-0.57,2.74l4.32,0c-0.03-1.29-0.21-2.21-0.56-2.75c-0.35-0.54-0.87-0.81-1.58-0.81
			C298.63,95.83,298.09,96.1,297.73,96.65z"/>
	</g>
	<g>
		<path class="st0" d="M172.17,135.66l-0.04-18.95c0.81-0.2,1.71-0.36,2.69-0.48c0.98-0.11,1.92-0.17,2.84-0.17
			c3.19,0,5.59,0.81,7.19,2.44c1.6,1.63,2.41,4.14,2.41,7.52c0,2.32-0.37,4.21-1.13,5.68c-0.76,1.47-1.9,2.55-3.42,3.24
			c-1.52,0.69-3.45,1.04-5.78,1.04C175.27,135.98,173.69,135.87,172.17,135.66z M180.97,131.84c0.79-0.43,1.38-1.12,1.77-2.07
			c0.39-0.95,0.58-2.2,0.58-3.76c0-1.54-0.2-2.78-0.6-3.74c-0.4-0.95-0.99-1.65-1.79-2.09c-0.79-0.44-1.8-0.66-3.01-0.66
			c-0.62,0-1.27,0.07-1.95,0.2l0.03,12.67c0.5,0.06,1.14,0.09,1.93,0.09C179.17,132.48,180.18,132.27,180.97,131.84z"/>
		<path class="st0" d="M190.32,118.69c-0.39-0.38-0.58-0.92-0.59-1.62c0-0.71,0.19-1.26,0.57-1.63c0.38-0.38,0.97-0.57,1.75-0.57
			c0.78,0,1.36,0.19,1.74,0.57c0.38,0.38,0.58,0.92,0.58,1.63c0,0.7-0.19,1.24-0.57,1.62c-0.38,0.38-0.96,0.57-1.74,0.57
			C191.3,119.26,190.71,119.07,190.32,118.69z M190.22,135.78l-0.03-14.42l3.76,0l0.03,14.42L190.22,135.78z"/>
		<path class="st0" d="M197.03,135.42l-0.01-3.08c1.27,0.43,2.63,0.65,4.07,0.65c0.82,0,1.4-0.12,1.77-0.36
			c0.36-0.24,0.55-0.6,0.54-1.06c0-0.36-0.09-0.63-0.26-0.82c-0.17-0.18-0.47-0.32-0.91-0.42l-2.08-0.42
			c-1.2-0.25-2.08-0.71-2.64-1.39c-0.56-0.68-0.84-1.6-0.84-2.76c0-0.94,0.22-1.76,0.67-2.45c0.45-0.69,1.12-1.22,2.03-1.6
			c0.9-0.38,2.03-0.57,3.37-0.57c0.61,0,1.22,0.04,1.82,0.12c0.6,0.08,1.14,0.19,1.63,0.33l0.01,3.08
			c-1.04-0.32-2.16-0.47-3.34-0.47c-1.79,0-2.68,0.48-2.68,1.45c0,0.32,0.09,0.57,0.27,0.76c0.18,0.19,0.47,0.33,0.89,0.42
			l2.08,0.42c1.19,0.25,2.07,0.7,2.64,1.35s0.86,1.58,0.86,2.81c0,0.96-0.22,1.78-0.67,2.48c-0.45,0.69-1.11,1.23-1.97,1.6
			c-0.87,0.37-1.9,0.56-3.11,0.56C199.63,136.05,198.25,135.84,197.03,135.42z"/>
		<path class="st0" d="M210.01,134.19c-1.14-1.24-1.72-3.11-1.72-5.6c-0.01-2.5,0.6-4.37,1.81-5.61c1.21-1.23,2.96-1.85,5.26-1.85
			c1.07,0,2.03,0.11,2.88,0.33l0.01,3.33c-0.82-0.18-1.61-0.28-2.36-0.28c-0.87,0-1.58,0.14-2.12,0.41c-0.54,0.27-0.95,0.71-1.2,1.3
			c-0.26,0.59-0.39,1.37-0.38,2.33c0,1.45,0.28,2.5,0.84,3.14c0.56,0.64,1.41,0.96,2.57,0.96c0.4,0,0.81-0.04,1.22-0.11
			c0.42-0.07,0.9-0.2,1.46-0.36l0.01,3.33c-0.99,0.36-2.08,0.54-3.27,0.54C212.82,136.05,211.16,135.43,210.01,134.19z"/>
		<path class="st0" d="M228.12,121.71c0.86,0.39,1.5,1.02,1.92,1.9c0.42,0.88,0.63,2.08,0.63,3.59l0.02,8.57l-3.1,0l-0.26-1.42
			l-0.18,0c-0.38,0.57-0.86,1-1.44,1.27c-0.59,0.28-1.24,0.42-1.96,0.42c-0.86,0-1.61-0.17-2.24-0.52
			c-0.63-0.35-1.11-0.83-1.44-1.46c-0.33-0.63-0.5-1.36-0.5-2.19c0-1.38,0.42-2.45,1.28-3.2c0.86-0.76,2.21-1.2,4.06-1.33l2.09-0.2
			l0-0.18c0-0.67-0.1-1.19-0.29-1.57c-0.19-0.38-0.5-0.65-0.92-0.81c-0.42-0.16-0.99-0.24-1.72-0.24c-0.53,0-1.1,0.05-1.72,0.15
			c-0.62,0.1-1.21,0.24-1.77,0.44l-0.01-3.16c0.61-0.19,1.29-0.34,2.03-0.45c0.74-0.11,1.45-0.16,2.13-0.16
			C226.12,121.13,227.25,121.32,228.12,121.71z M226.04,132.89c0.35-0.15,0.67-0.38,0.95-0.69l-0.01-2.7l-1.72,0.15
			c-0.71,0.06-1.22,0.24-1.54,0.55c-0.32,0.3-0.48,0.73-0.48,1.27c0,0.54,0.15,0.94,0.44,1.23c0.29,0.28,0.71,0.42,1.27,0.42
			C225.33,133.11,225.69,133.04,226.04,132.89z"/>
		<path class="st0" d="M233.35,121.35l3.15,0l0.24,1.53l0.18,0c0.38-0.54,0.85-0.97,1.44-1.29c0.58-0.31,1.24-0.47,1.98-0.47
			c1,0,1.89,0.25,2.68,0.74c0.79,0.5,1.43,1.28,1.9,2.35c0.47,1.07,0.71,2.42,0.71,4.07c0.01,2.52-0.59,4.44-1.78,5.77
			c-1.19,1.32-2.93,1.98-5.21,1.98c-0.42,0-0.91-0.04-1.49-0.11l0.01,5.64l-3.76,0L233.35,121.35z M241.05,131.83
			c0.53-0.66,0.79-1.74,0.79-3.22c0-1.49-0.23-2.54-0.68-3.14c-0.45-0.6-1.09-0.9-1.93-0.9c-0.41,0-0.8,0.08-1.18,0.24
			c-0.38,0.16-0.69,0.41-0.94,0.73l0.01,7.13c0.45,0.11,0.95,0.16,1.48,0.16C239.71,132.83,240.52,132.5,241.05,131.83z"/>
		<path class="st0" d="M255.75,121.7c0.86,0.39,1.5,1.02,1.92,1.9c0.42,0.88,0.63,2.08,0.63,3.59l0.02,8.57l-3.1,0l-0.26-1.42
			l-0.18,0c-0.38,0.57-0.86,1-1.44,1.27c-0.59,0.28-1.24,0.42-1.96,0.42c-0.86,0-1.61-0.17-2.24-0.52
			c-0.63-0.35-1.11-0.83-1.44-1.46c-0.33-0.63-0.5-1.36-0.5-2.19c0-1.38,0.42-2.45,1.28-3.2c0.86-0.76,2.21-1.2,4.06-1.33l2.09-0.2
			l0-0.18c0-0.67-0.1-1.19-0.29-1.57c-0.19-0.38-0.5-0.65-0.92-0.81c-0.42-0.16-0.99-0.24-1.72-0.24c-0.53,0-1.1,0.05-1.72,0.15
			c-0.62,0.1-1.21,0.24-1.77,0.44l-0.01-3.16c0.61-0.19,1.29-0.34,2.03-0.45c0.74-0.11,1.45-0.16,2.13-0.16
			C253.75,121.12,254.88,121.31,255.75,121.7z M253.68,132.89c0.35-0.15,0.67-0.38,0.95-0.69l-0.01-2.7l-1.72,0.15
			c-0.71,0.06-1.22,0.24-1.54,0.55c-0.32,0.3-0.48,0.73-0.48,1.27c0,0.54,0.15,0.94,0.44,1.23c0.29,0.28,0.71,0.42,1.27,0.42
			C252.96,133.1,253.32,133.03,253.68,132.89z"/>
		<path class="st0" d="M262.13,134.18c-1.14-1.24-1.72-3.11-1.72-5.6c-0.01-2.5,0.6-4.37,1.81-5.61c1.21-1.23,2.96-1.85,5.26-1.85
			c1.07,0,2.03,0.11,2.88,0.33l0.01,3.33c-0.82-0.18-1.61-0.28-2.36-0.28c-0.87,0-1.58,0.14-2.12,0.41c-0.54,0.27-0.95,0.71-1.2,1.3
			c-0.26,0.59-0.39,1.37-0.38,2.33c0,1.45,0.28,2.5,0.84,3.14c0.56,0.64,1.41,0.96,2.57,0.96c0.4,0,0.81-0.04,1.22-0.11
			c0.42-0.07,0.9-0.2,1.46-0.36l0.01,3.33c-0.99,0.36-2.08,0.54-3.27,0.54C264.93,136.04,263.27,135.42,262.13,134.18z"/>
		<path class="st0" d="M272.43,118.68c-0.39-0.38-0.58-0.92-0.59-1.62c0-0.71,0.19-1.26,0.57-1.63c0.38-0.38,0.97-0.57,1.75-0.57
			c0.78,0,1.36,0.19,1.74,0.57c0.38,0.38,0.58,0.92,0.58,1.63c0,0.7-0.19,1.24-0.57,1.62c-0.38,0.38-0.96,0.57-1.74,0.57
			C273.4,119.25,272.82,119.06,272.43,118.68z M272.33,135.76l-0.03-14.42l3.76,0l0.03,14.42L272.33,135.76z"/>
		<path class="st0" d="M280.9,135.26c-0.79-0.5-1.43-1.28-1.9-2.35c-0.47-1.07-0.71-2.42-0.71-4.05c-0.01-2.52,0.59-4.44,1.78-5.77
			c1.19-1.32,2.93-1.98,5.21-1.98c0.53,0,1.03,0.04,1.49,0.11l-0.01-6.75l3.76,0l0.04,21.3l-3.15,0l-0.24-1.5l-0.18,0
			c-0.38,0.55-0.85,0.97-1.44,1.29c-0.58,0.31-1.24,0.47-1.98,0.47C282.59,136.01,281.69,135.76,280.9,135.26z M285.86,132.33
			c0.38-0.16,0.69-0.41,0.94-0.73l-0.01-7.13c-0.45-0.11-0.95-0.16-1.48-0.16c-1.1,0-1.91,0.33-2.44,1
			c-0.53,0.66-0.79,1.74-0.79,3.22c0,1.49,0.23,2.53,0.68,3.14c0.45,0.61,1.09,0.91,1.93,0.91
			C285.09,132.57,285.48,132.49,285.86,132.33z"/>
		<path class="st0" d="M301.26,121.69c0.86,0.39,1.5,1.02,1.92,1.9c0.42,0.88,0.63,2.08,0.63,3.59l0.02,8.57l-3.1,0l-0.26-1.42
			l-0.18,0c-0.38,0.57-0.86,1-1.44,1.27c-0.59,0.28-1.24,0.42-1.96,0.42c-0.86,0-1.61-0.17-2.24-0.52
			c-0.63-0.35-1.11-0.83-1.44-1.46c-0.33-0.63-0.5-1.36-0.5-2.19c0-1.38,0.42-2.45,1.28-3.2c0.86-0.76,2.21-1.2,4.06-1.33l2.09-0.2
			l0-0.18c0-0.67-0.1-1.19-0.29-1.57c-0.19-0.38-0.5-0.65-0.92-0.81c-0.42-0.16-0.99-0.24-1.72-0.24c-0.53,0-1.1,0.05-1.72,0.15
			c-0.62,0.1-1.21,0.24-1.77,0.44l-0.01-3.16c0.61-0.19,1.29-0.34,2.03-0.45c0.74-0.11,1.45-0.16,2.13-0.16
			C299.27,121.11,300.4,121.31,301.26,121.69z M299.19,132.88c0.35-0.15,0.67-0.38,0.95-0.69l-0.01-2.7l-1.72,0.15
			c-0.71,0.06-1.22,0.24-1.54,0.55c-0.32,0.3-0.48,0.73-0.48,1.27c0,0.54,0.15,0.94,0.44,1.23c0.29,0.28,0.71,0.42,1.27,0.42
			C298.48,133.09,298.84,133.02,299.19,132.88z"/>
		<path class="st0" d="M308.53,135.25c-0.79-0.5-1.43-1.28-1.9-2.35c-0.47-1.07-0.71-2.42-0.71-4.05c-0.01-2.52,0.59-4.44,1.78-5.77
			c1.19-1.32,2.93-1.98,5.21-1.98c0.53,0,1.03,0.04,1.49,0.11l-0.01-6.75l3.76,0l0.04,21.3l-3.15,0l-0.24-1.5l-0.18,0
			c-0.38,0.55-0.85,0.97-1.44,1.29c-0.58,0.31-1.24,0.47-1.98,0.47C310.22,136.01,309.33,135.75,308.53,135.25z M313.49,132.32
			c0.38-0.16,0.69-0.41,0.94-0.73l-0.01-7.13c-0.45-0.11-0.95-0.16-1.48-0.16c-1.1,0-1.91,0.33-2.44,1
			c-0.53,0.66-0.79,1.74-0.79,3.22c0,1.49,0.23,2.53,0.68,3.14c0.45,0.61,1.09,0.91,1.93,0.91
			C312.72,132.56,313.11,132.48,313.49,132.32z"/>
	</g>
	<path class="st0" d="M101.15,31.73c-25.38,0-45.98,21.48-45.93,47.88l0,0.15c0.01,1.59,1.02,2.87,2.51,3.19
		c0.22,0.05,0.44,0.07,0.66,0.07c1.25,0,2.4-0.76,2.91-2c6.89-16.54,22.55-27.23,39.89-27.24c17.34,0,33.04,10.68,39.99,27.23
		c0.61,1.46,2.1,2.26,3.58,1.93c1.49-0.32,2.5-1.6,2.5-3.19l0-0.15C147.22,53.21,126.53,31.73,101.15,31.73 M146.03,79.6"/>
	<path class="st0" d="M97.86,135.77c1.3-0.83,1.82-2.4,1.3-3.89c-0.52-1.49-1.94-2.38-3.46-2.16c-17.17,2.5-34.14-5.82-43.23-21.2
		c-9.09-15.38-8.55-34.87,1.36-49.65c0.87-1.3,0.75-3.03-0.29-4.19c-1.05-1.16-2.62-1.38-3.93-0.56l-0.13,0.08
		c-10.47,6.68-17.8,17.21-20.65,29.64c-2.85,12.44-0.87,25.29,5.58,36.19c6.44,10.9,16.58,18.55,28.54,21.54
		c3.6,0.9,7.23,1.34,10.84,1.34c8.38,0,16.62-2.4,23.95-7.07L97.86,135.77z M97.2,134.67L97.2,134.67L97.2,134.67L97.2,134.67z"/>
	<path class="st0" d="M109.58,62.84l-0.14-0.04c-1.46-0.45-2.93,0.2-3.65,1.6c-0.72,1.4-0.4,3.1,0.78,4.12
		c13.33,11.57,18.8,30.23,13.95,47.53c-4.85,17.31-19.11,29.94-36.31,32.19c-1.52,0.2-2.67,1.44-2.79,3.03
		c-0.12,1.58,0.78,2.95,2.22,3.39l0.16,0.05c4.32,1.32,8.67,1.95,12.96,1.95c19.9,0,38.27-13.55,44.11-34.39
		c3.44-12.27,2.08-25.21-3.83-36.43C131.14,74.61,121.39,66.45,109.58,62.84"/>
</g>
</svg>
