<?xml version="1.0" encoding="utf-8"?>
<!-- Generator: Adobe Illustrator 25.0.0, SVG Export Plug-In . SVG Version: 6.00 Build 0)  -->
<svg version="1.1" id="Capa_1" xmlns="http://www.w3.org/2000/svg" xmlns:xlink="http://www.w3.org/1999/xlink" x="0px" y="0px"
	 viewBox="0 0 340.16 198.43" style="enable-background:new 0 0 340.16 198.43;" xml:space="preserve">
<style type="text/css">
	.st0{fill:#302726;}
	.st1{fill:#37BBEE;}
</style>
<g>
	<path class="st0" d="M30.36,110.79l-2.72-9.36c-0.09-0.32-0.36-0.54-0.67-0.54l-11.72-0.06c-0.3,0-0.57,0.21-0.67,0.53l-2.78,9.33
		c-0.1,0.32-0.37,0.54-0.67,0.53l-4.29-0.02c-0.48,0-0.82-0.53-0.66-1.03L16.81,75.6c0.1-0.32,0.37-0.53,0.67-0.53l7.5,0.04
		c0.3,0,0.57,0.22,0.66,0.53l10.38,34.68c0.15,0.51-0.19,1.03-0.67,1.02l-4.33-0.02C30.72,111.33,30.45,111.11,30.36,110.79
		 M17.25,95.61l7.74,0.04c0.48,0,0.82-0.51,0.67-1.02l-3.83-13.16c-0.21-0.72-1.12-0.72-1.34-0.01l-3.91,13.12
		C16.43,95.09,16.77,95.61,17.25,95.61"/>
	<path class="st0" d="M40.42,84.7l3.45,0.02c0.35,0,0.65,0.29,0.69,0.67l0.35,2.8l0.31,0c0.71-1.25,1.64-2.19,2.8-2.82
		c1.16-0.63,2.43-0.94,3.81-0.93c0.43,0,0.86,0.03,1.3,0.09c0.35,0.04,0.62,0.39,0.62,0.79l-0.02,4.25c0,0.46-0.35,0.81-0.76,0.77
		c-0.43-0.04-0.93-0.07-1.49-0.07c-1.15-0.01-2.28,0.25-3.39,0.76c-1.02,0.48-1.85,1.14-2.47,1.99c-0.1,0.14-0.15,0.32-0.15,0.5
		l-0.06,17.11c0,0.43-0.32,0.78-0.71,0.77l-4.37-0.02c-0.39,0-0.7-0.35-0.7-0.78l0.09-25.12C39.71,85.05,40.03,84.7,40.42,84.7"/>
	<path class="st0" d="M60.6,122.45c-1.15-0.17-2.23-0.4-3.26-0.7c-0.31-0.09-0.52-0.41-0.52-0.77l0.01-3.47
		c0-0.51,0.44-0.87,0.89-0.74c2.25,0.65,4.38,0.98,6.41,0.99c1.65,0.01,2.98-0.22,4.01-0.68c1.03-0.46,1.79-1.2,2.29-2.23
		c0.5-1.02,0.75-2.38,0.75-4.06l0.01-2.1l-0.29,0c-0.75,0.96-1.67,1.7-2.75,2.24c-1.08,0.53-2.3,0.79-3.65,0.79
		c-1.72-0.01-3.28-0.48-4.67-1.41c-1.39-0.93-2.51-2.37-3.34-4.32c-0.83-1.95-1.24-4.4-1.23-7.33c0.02-4.69,1.13-8.24,3.35-10.64
		c2.21-2.4,5.5-3.6,9.85-3.59c1.44,0.01,2.93,0.14,4.47,0.39c1.34,0.22,2.55,0.51,3.63,0.87c0.3,0.1,0.49,0.41,0.49,0.75
		l-0.08,23.23c-0.01,3.08-0.47,5.58-1.38,7.51c-0.91,1.93-2.28,3.34-4.1,4.23c-1.83,0.89-4.14,1.33-6.95,1.32
		C63.26,122.74,61.94,122.64,60.6,122.45 M69.15,105.95c0.73-0.31,1.35-0.77,1.87-1.37c0.13-0.15,0.2-0.35,0.2-0.55l0.05-13.58
		c0-0.38-0.24-0.71-0.57-0.78c-0.92-0.19-1.83-0.29-2.73-0.3c-2.28-0.01-3.99,0.68-5.13,2.08c-1.15,1.4-1.72,3.63-1.73,6.69
		c-0.01,3.05,0.46,5.2,1.41,6.45c0.95,1.25,2.32,1.88,4.09,1.89C67.48,106.48,68.33,106.31,69.15,105.95"/>
	<path class="st0" d="M101.57,100.28l-13.42-0.07c-0.42,0-0.74,0.41-0.7,0.88c0.12,1.32,0.39,2.4,0.81,3.24
		c0.51,1.02,1.3,1.76,2.37,2.22c1.07,0.46,2.5,0.7,4.3,0.71c1.54,0.01,3.26-0.22,5.18-0.68c0.44-0.11,0.86,0.26,0.86,0.76
		l-0.01,3.26c0,0.36-0.23,0.69-0.55,0.77c-2.12,0.53-4.22,0.79-6.29,0.78c-2.87-0.01-5.22-0.51-7.06-1.48
		c-1.84-0.97-3.21-2.47-4.12-4.51c-0.9-2.03-1.35-4.67-1.34-7.92c0.01-2.98,0.44-5.5,1.28-7.55c0.84-2.05,2.06-3.59,3.65-4.61
		c1.59-1.03,3.51-1.53,5.76-1.52c3.28,0.02,5.76,1.2,7.46,3.55c1.7,2.35,2.54,5.83,2.52,10.44l0,0.96
		C102.28,99.93,101.96,100.28,101.57,100.28 M88.68,90.48c-0.73,1.05-1.15,2.74-1.27,5.07c-0.02,0.44,0.3,0.82,0.7,0.82l8.04,0.04
		c0.4,0,0.73-0.37,0.71-0.81c-0.1-2.33-0.49-4.03-1.18-5.08c-0.77-1.18-1.92-1.77-3.44-1.78C90.68,88.73,89.49,89.31,88.68,90.48"/>
	<path class="st0" d="M107.33,85.05l3.48,0.02c0.35,0,0.64,0.28,0.69,0.66l0.3,2.15l0.31,0c0.91-1.04,1.99-1.83,3.24-2.38
		c1.24-0.55,2.57-0.82,3.98-0.81c2.48,0.01,4.44,0.83,5.88,2.46c1.44,1.63,2.15,4.2,2.13,7.7l-0.06,16.19
		c0,0.43-0.32,0.78-0.71,0.77l-4.37-0.02c-0.39,0-0.7-0.35-0.7-0.78l0.06-15.82c0.01-1.78-0.33-3.05-1-3.81
		c-0.67-0.76-1.66-1.15-2.95-1.15c-0.97-0.01-1.93,0.21-2.87,0.66c-0.86,0.41-1.6,1-2.2,1.78c-0.11,0.14-0.17,0.33-0.17,0.52
		l-0.06,17.78c0,0.43-0.32,0.78-0.71,0.77l-4.37-0.02c-0.39,0-0.7-0.35-0.7-0.78l0.09-25.12C106.63,85.4,106.94,85.05,107.33,85.05"
		/>
	<path class="st0" d="M147.16,107.68l-0.01,3.57c0,0.37-0.24,0.7-0.57,0.77c-1.21,0.26-2.41,0.39-3.61,0.38
		c-5.7-0.03-8.54-3.23-8.52-9.61l0.04-11.71c0-0.43-0.31-0.78-0.7-0.78l-2.74-0.01c-0.39,0-0.7-0.35-0.7-0.78l0.01-3.55
		c0-0.43,0.32-0.78,0.71-0.77l2.82,0.01c0.36,0,0.66-0.29,0.7-0.68l0.9-8.13c0.04-0.39,0.34-0.69,0.7-0.68l3.44,0.02
		c0.39,0,0.7,0.35,0.7,0.78l-0.03,7.95c0,0.43,0.31,0.78,0.7,0.78l5.32,0.03c0.39,0,0.7,0.35,0.7,0.78l-0.01,3.55
		c0,0.43-0.32,0.78-0.71,0.78l-5.32-0.03c-0.39,0-0.7,0.34-0.71,0.78l-0.04,10.69c0,1.3,0.14,2.34,0.44,3.11
		c0.3,0.77,0.76,1.32,1.37,1.66c0.62,0.34,1.43,0.51,2.45,0.51c0.52,0,1.15-0.06,1.87-0.18
		C146.79,106.83,147.16,107.2,147.16,107.68"/>
	<path class="st0" d="M151.09,79.81c-0.61-0.6-0.91-1.46-0.91-2.58c0-1.12,0.31-1.99,0.92-2.59c0.61-0.6,1.53-0.9,2.75-0.89
		c1.22,0.01,2.13,0.31,2.74,0.92c0.61,0.61,0.91,1.47,0.9,2.6c0,1.13-0.31,1.98-0.92,2.58c-0.61,0.59-1.53,0.89-2.75,0.88
		C152.61,80.72,151.69,80.41,151.09,79.81 M150.81,111.17l0.09-25.12c0-0.43,0.32-0.78,0.71-0.78L156,85.3c0.39,0,0.7,0.35,0.7,0.78
		l-0.09,25.12c0,0.43-0.32,0.78-0.71,0.78l-4.39-0.02C151.12,111.95,150.81,111.6,150.81,111.17"/>
	<path class="st0" d="M163.13,85.34l3.48,0.02c0.35,0,0.64,0.28,0.69,0.66l0.3,2.15l0.31,0c0.92-1.04,1.99-1.83,3.24-2.38
		c1.24-0.55,2.57-0.82,3.98-0.81c2.48,0.01,4.44,0.83,5.88,2.46c1.44,1.63,2.15,4.2,2.13,7.7l-0.06,16.19
		c0,0.43-0.32,0.78-0.71,0.77l-4.37-0.02c-0.39,0-0.7-0.35-0.7-0.78l0.06-15.82c0.01-1.78-0.33-3.05-1-3.81
		c-0.67-0.76-1.66-1.15-2.95-1.15c-0.97-0.01-1.93,0.21-2.87,0.66c-0.86,0.41-1.6,1-2.2,1.78c-0.11,0.14-0.17,0.33-0.17,0.52
		l-0.06,17.78c0,0.43-0.32,0.78-0.71,0.77l-4.37-0.02c-0.39,0-0.7-0.35-0.7-0.78l0.09-25.12C162.43,85.69,162.75,85.34,163.13,85.34
		"/>
	<path class="st0" d="M202.65,86.15c1.51,0.68,2.64,1.8,3.37,3.36c0.74,1.55,1.1,3.66,1.09,6.31l-0.06,15.65
		c0,0.43-0.32,0.78-0.71,0.77l-3.48-0.02c-0.34,0-0.64-0.28-0.69-0.66l-0.3-2.11l-0.31,0c-0.72,1.06-1.66,1.85-2.8,2.39
		c-1.14,0.54-2.4,0.81-3.78,0.8c-1.57-0.01-2.93-0.32-4.07-0.95c-1.14-0.62-2.02-1.51-2.63-2.64c-0.61-1.14-0.91-2.47-0.9-4
		c0.01-2.48,0.78-4.39,2.31-5.73c1.53-1.35,3.96-2.16,7.26-2.43l4.5-0.44l0-1.05c0-1.35-0.19-2.42-0.57-3.19
		c-0.39-0.78-0.99-1.33-1.82-1.66c-0.83-0.33-1.94-0.5-3.34-0.51c-0.98-0.01-2.05,0.08-3.2,0.26c-0.83,0.13-1.63,0.31-2.41,0.54
		c-0.45,0.13-0.89-0.23-0.89-0.75l0.01-3.29c0-0.35,0.2-0.66,0.51-0.75c0.96-0.29,2.01-0.51,3.15-0.67
		c1.34-0.19,2.62-0.28,3.83-0.27C199.16,85.11,201.13,85.46,202.65,86.15 M199.27,107.58c0.72-0.32,1.37-0.81,1.95-1.46
		c0.13-0.15,0.2-0.35,0.2-0.56l0.02-4.5c0-0.46-0.35-0.82-0.76-0.78l-3.18,0.3c-1.51,0.15-2.62,0.55-3.32,1.19
		c-0.7,0.64-1.05,1.54-1.06,2.7c0,1.17,0.3,2.07,0.93,2.69c0.62,0.62,1.54,0.94,2.74,0.94
		C197.64,108.11,198.47,107.94,199.27,107.58"/>
	<path class="st1" d="M220,109.97c-1.5-1.73-2.23-4.43-2.22-8.1l0.05-14.8c0-0.74,0.55-1.34,1.21-1.33l5.72,0.03
		c0.67,0,1.21,0.61,1.2,1.35l-0.05,14.15c0,1.3,0.22,2.22,0.68,2.76c0.45,0.55,1.11,0.83,1.98,0.83c0.63,0,1.28-0.14,1.93-0.44
		c0.65-0.29,1.18-0.7,1.58-1.23l0.06-16.05c0-0.74,0.55-1.34,1.21-1.33l5.73,0.03c0.67,0,1.21,0.61,1.2,1.35l-0.08,23.67
		c0,0.74-0.55,1.34-1.21,1.33l-5.48-0.03l-0.53-2.57l-0.33,0c-0.88,0.99-1.88,1.74-2.99,2.24c-1.11,0.51-2.29,0.76-3.55,0.75
		C223.54,112.56,221.5,111.7,220,109.97"/>
	<path class="st1" d="M245.15,87.21c0-0.74,0.55-1.34,1.21-1.33l5.48,0.03l0.53,2.57l0.37,0c0.84-0.97,1.84-1.71,3.01-2.22
		c1.16-0.5,2.43-0.76,3.81-0.75c2.54,0.01,4.55,0.89,6.03,2.64c1.48,1.75,2.21,4.45,2.2,8.12L267.75,111c0,0.74-0.55,1.34-1.21,1.33
		l-5.73-0.03c-0.67,0-1.21-0.61-1.2-1.35l0.05-14.15c0-1.3-0.22-2.22-0.69-2.76c-0.47-0.54-1.16-0.81-2.09-0.81
		c-0.68,0-1.34,0.14-1.99,0.43c-0.65,0.29-1.19,0.7-1.61,1.23l-0.06,16.03c0,0.74-0.55,1.34-1.21,1.33l-5.73-0.03
		c-0.67,0-1.21-0.61-1.2-1.35L245.15,87.21z"/>
	<path class="st1" d="M272.92,81.68c-0.81-0.78-1.21-1.92-1.2-3.41c0.01-1.47,0.42-2.59,1.23-3.37c0.81-0.77,2.05-1.16,3.73-1.15
		c1.66,0.01,2.89,0.41,3.7,1.19c0.81,0.78,1.2,1.91,1.2,3.38c-0.01,1.49-0.41,2.62-1.22,3.39c-0.81,0.77-2.05,1.15-3.71,1.14
		C274.97,82.85,273.73,82.46,272.92,81.68 M272.45,111.02l0.08-23.67c0-0.74,0.55-1.34,1.21-1.33l5.75,0.03
		c0.67,0,1.21,0.61,1.2,1.35l-0.08,23.67c0,0.74-0.55,1.34-1.21,1.33l-5.75-0.03C272.99,112.37,272.45,111.76,272.45,111.02"/>
	<path class="st1" d="M289.34,111.54c-1.48-0.93-2.66-2.39-3.53-4.36c-0.88-1.97-1.31-4.43-1.3-7.39c0.02-4.56,1.16-8.06,3.43-10.49
		c2.27-2.43,5.57-3.64,9.9-3.61c0.65,0,1.44,0.06,2.36,0.16l0.04-10.81c0-0.74,0.55-1.34,1.21-1.33l5.73,0.03
		c0.67,0,1.21,0.61,1.2,1.35l-0.13,36.14c0,0.74-0.55,1.34-1.21,1.33l-5.61-0.03l-0.49-2.74l-0.35,0c-0.7,1.01-1.57,1.79-2.63,2.35
		c-1.06,0.57-2.26,0.84-3.62,0.84C292.49,112.95,290.83,112.48,289.34,111.54 M298.65,105.33c0.59-0.22,1.08-0.53,1.49-0.94
		l0.04-11.65c-0.72-0.16-1.5-0.25-2.34-0.25c-1.75-0.01-3.04,0.5-3.88,1.54c-0.84,1.03-1.26,2.74-1.27,5.13
		c-0.01,2.37,0.34,4.04,1.05,5.02c0.71,0.97,1.74,1.46,3.1,1.47C297.46,105.65,298.06,105.54,298.65,105.33"/>
	<path class="st1" d="M327.84,86.98c1.67,0.76,2.9,1.98,3.69,3.69c0.79,1.7,1.18,4.01,1.17,6.92l-0.05,13.75
		c0,0.74-0.55,1.34-1.21,1.33l-5.47-0.03l-0.55-2.5l-0.37,0c-0.67,1.02-1.52,1.77-2.57,2.26c-1.04,0.48-2.22,0.72-3.53,0.72
		c-1.63-0.01-3.04-0.35-4.23-1.01c-1.19-0.66-2.09-1.58-2.71-2.75c-0.62-1.17-0.92-2.53-0.91-4.06c0.01-2.6,0.84-4.6,2.5-6.01
		c1.66-1.41,4.27-2.22,7.84-2.45l3.34-0.22c-0.03-0.99-0.21-1.78-0.54-2.36c-0.34-0.58-0.87-1-1.6-1.26c-0.73-0.26-1.73-0.39-3-0.4
		c-0.97-0.01-2.03,0.08-3.2,0.25c-1.17,0.17-2.25,0.42-3.26,0.75l0.02-6.71c1.18-0.35,2.49-0.61,3.91-0.8
		c1.42-0.19,2.78-0.27,4.06-0.27C323.95,85.85,326.17,86.23,327.84,86.98 M323.31,106.7c0.52-0.17,1-0.45,1.44-0.83l0.02-4.35
		l-2.47,0.18c-1.1,0.08-1.91,0.35-2.42,0.82c-0.52,0.47-0.77,1.12-0.78,1.95c0,0.8,0.22,1.41,0.68,1.84
		c0.45,0.43,1.1,0.64,1.96,0.64C322.26,106.95,322.79,106.87,323.31,106.7"/>
</g>
</svg>
