<?xml version="1.0" encoding="utf-8"?>
<!-- Generator: Adobe Illustrator 25.0.0, SVG Export Plug-In . SVG Version: 6.00 Build 0)  -->
<svg version="1.1" id="Capa_1" xmlns="http://www.w3.org/2000/svg" xmlns:xlink="http://www.w3.org/1999/xlink" x="0px" y="0px"
	 viewBox="0 0 340.16 198.43" style="enable-background:new 0 0 340.16 198.43;" xml:space="preserve">
<style type="text/css">
	.st0{clip-path:url(#SVGID_2_);}
	.st1{clip-path:url(#SVGID_4_);fill:#221F1F;}
	.st2{clip-path:url(#SVGID_4_);fill:#0FB3E9;}
	.st3{clip-path:url(#SVGID_4_);fill:#FFFFFF;}
	.st4{clip-path:url(#SVGID_4_);fill:#FDC50F;}
	.st5{clip-path:url(#SVGID_4_);fill:#59AB46;}
	.st6{clip-path:url(#SVGID_4_);fill:#E84228;}
	.st7{clip-path:url(#SVGID_4_);fill:#F9BB80;}
</style>
<g>
	<g>
		<defs>
			<rect id="SVGID_1_" x="9.59" y="43.46" width="324.18" height="111.5"/>
		</defs>
		<clipPath id="SVGID_2_">
			<use xlink:href="#SVGID_1_"  style="overflow:visible;"/>
		</clipPath>
		<g class="st0">
			<defs>
				<rect id="SVGID_3_" x="9.59" y="43.46" width="324.18" height="111.5"/>
			</defs>
			<clipPath id="SVGID_4_">
				<use xlink:href="#SVGID_3_"  style="overflow:visible;"/>
			</clipPath>
			<path class="st1" d="M94.11,119.18l-1.91-7.83c-0.07-0.27-0.25-0.45-0.46-0.45h-8.15c-0.21,0-0.4,0.18-0.46,0.45l-1.91,7.83
				c-0.07,0.27-0.25,0.45-0.46,0.45h-2.98c-0.33,0-0.57-0.44-0.46-0.86l7.3-29.03c0.07-0.27,0.25-0.44,0.46-0.44h5.21
				c0.21,0,0.4,0.18,0.46,0.44l7.3,29.03c0.11,0.42-0.13,0.86-0.46,0.86h-3.01C94.36,119.63,94.18,119.45,94.11,119.18
				 M84.96,106.51h5.38c0.33,0,0.57-0.43,0.46-0.86l-2.7-11.02c-0.15-0.6-0.78-0.6-0.93,0l-2.68,11.02
				C84.39,106.08,84.63,106.51,84.96,106.51"/>
			<path class="st1" d="M101.04,97.26h2.4c0.24,0,0.45,0.24,0.48,0.56l0.25,2.35h0.21c0.49-1.05,1.14-1.85,1.94-2.38
				c0.8-0.53,1.68-0.8,2.64-0.8c0.3,0,0.6,0.02,0.9,0.07c0.25,0.04,0.43,0.33,0.43,0.66v3.56c0,0.38-0.24,0.68-0.53,0.65
				c-0.3-0.04-0.65-0.05-1.04-0.05c-0.8,0-1.58,0.22-2.35,0.66c-0.71,0.4-1.28,0.96-1.71,1.68c-0.07,0.12-0.11,0.27-0.11,0.42v14.34
				c0,0.36-0.22,0.65-0.49,0.65h-3.04c-0.27,0-0.49-0.29-0.49-0.65V97.92C100.55,97.56,100.77,97.26,101.04,97.26"/>
			<path class="st1" d="M115.16,128.82c-0.8-0.13-1.55-0.33-2.27-0.58c-0.22-0.07-0.36-0.34-0.36-0.64v-2.91
				c0-0.43,0.3-0.73,0.62-0.63c1.56,0.53,3.05,0.8,4.46,0.8c1.14,0,2.07-0.19,2.79-0.58c0.71-0.39,1.24-1.02,1.59-1.88
				c0.34-0.86,0.51-1.99,0.51-3.4v-1.76h-0.2c-0.52,0.81-1.16,1.43-1.91,1.89c-0.75,0.45-1.6,0.68-2.54,0.68
				c-1.2,0-2.28-0.39-3.25-1.16c-0.97-0.77-1.75-1.97-2.33-3.61c-0.58-1.63-0.87-3.68-0.87-6.14c0-3.94,0.77-6.91,2.3-8.94
				c1.53-2.02,3.81-3.04,6.84-3.05c1,0,2.04,0.1,3.11,0.31c0.93,0.18,1.77,0.42,2.52,0.72c0.21,0.08,0.34,0.34,0.34,0.63v19.48
				c0,2.58-0.31,4.68-0.94,6.3c-0.63,1.62-1.58,2.81-2.84,3.57c-1.27,0.76-2.88,1.14-4.83,1.14
				C117.01,129.06,116.1,128.98,115.16,128.82 M121.06,114.95c0.5-0.27,0.94-0.65,1.3-1.16c0.09-0.12,0.13-0.29,0.13-0.46v-11.39
				c0-0.31-0.17-0.59-0.4-0.65c-0.64-0.16-1.27-0.24-1.9-0.24c-1.58,0-2.77,0.59-3.56,1.76c-0.79,1.18-1.19,3.05-1.19,5.62
				c0,2.56,0.33,4.36,1,5.4c0.66,1.05,1.61,1.57,2.85,1.57C119.91,115.4,120.5,115.26,121.06,114.95"/>
			<path class="st1" d="M143.59,110.06h-9.33c-0.29,0-0.52,0.35-0.48,0.74c0.09,1.11,0.28,2.01,0.57,2.71
				c0.36,0.85,0.91,1.47,1.65,1.86c0.75,0.38,1.74,0.57,2.99,0.57c1.07,0,2.27-0.2,3.6-0.59c0.31-0.09,0.6,0.21,0.6,0.63v2.74
				c0,0.31-0.16,0.58-0.38,0.64c-1.47,0.45-2.93,0.68-4.37,0.68c-1.99,0-3.63-0.4-4.91-1.21c-1.28-0.81-2.24-2.06-2.87-3.76
				c-0.63-1.7-0.95-3.91-0.95-6.63c0-2.5,0.29-4.61,0.87-6.33c0.58-1.72,1.43-3.02,2.53-3.88c1.1-0.87,2.44-1.3,4-1.3
				c2.28,0,4.01,0.98,5.2,2.94c1.18,1.96,1.78,4.88,1.78,8.74v0.8C144.08,109.76,143.86,110.06,143.59,110.06 M134.6,101.9
				c-0.5,0.88-0.79,2.3-0.87,4.26c-0.01,0.37,0.21,0.68,0.49,0.68h5.59c0.28,0,0.5-0.31,0.49-0.68c-0.07-1.95-0.35-3.37-0.83-4.26
				c-0.54-0.98-1.34-1.48-2.4-1.48C135.99,100.42,135.17,100.91,134.6,101.9"/>
			<path class="st1" d="M147.55,97.26h2.42c0.24,0,0.45,0.23,0.48,0.55l0.21,1.8h0.22c0.63-0.87,1.38-1.54,2.24-2.01
				c0.86-0.46,1.79-0.7,2.77-0.7c1.73,0,3.09,0.68,4.09,2.04c1,1.36,1.5,3.51,1.5,6.45v13.57c0,0.36-0.22,0.65-0.49,0.65h-3.04
				c-0.27,0-0.49-0.29-0.49-0.65v-13.27c0-1.49-0.24-2.55-0.71-3.19c-0.47-0.64-1.16-0.95-2.05-0.95c-0.67,0-1.34,0.19-1.99,0.56
				c-0.6,0.34-1.11,0.84-1.52,1.5c-0.08,0.12-0.12,0.28-0.12,0.43v14.91c0,0.36-0.22,0.65-0.49,0.65h-3.04
				c-0.27,0-0.49-0.29-0.49-0.65V97.92C147.07,97.56,147.28,97.26,147.55,97.26"/>
			<path class="st1" d="M175.3,116.06v2.99c0,0.31-0.16,0.59-0.39,0.65c-0.84,0.22-1.67,0.34-2.51,0.34c-3.96,0-5.95-2.67-5.95-8.02
				v-9.82c0-0.36-0.22-0.65-0.49-0.65h-1.9c-0.27,0-0.49-0.29-0.49-0.65v-2.98c0-0.36,0.22-0.65,0.49-0.65h1.96
				c0.25,0,0.46-0.25,0.49-0.58l0.6-6.82c0.03-0.33,0.24-0.58,0.48-0.58h2.39c0.27,0,0.49,0.29,0.49,0.65v6.67
				c0,0.36,0.22,0.65,0.49,0.65h3.7c0.27,0,0.49,0.29,0.49,0.65v2.98c0,0.36-0.22,0.65-0.49,0.65h-3.7c-0.27,0-0.49,0.29-0.49,0.65
				v8.96c0,1.09,0.1,1.96,0.31,2.6c0.21,0.64,0.53,1.1,0.96,1.38c0.43,0.28,1,0.42,1.7,0.42c0.36,0,0.8-0.05,1.3-0.16
				C175.03,115.35,175.3,115.66,175.3,116.06"/>
			<path class="st1" d="M178.23,92.68c-0.42-0.5-0.64-1.22-0.64-2.16c0-0.94,0.21-1.67,0.64-2.17c0.42-0.51,1.06-0.76,1.91-0.76
				c0.85,0,1.48,0.25,1.91,0.76c0.42,0.51,0.64,1.23,0.64,2.17c0,0.94-0.21,1.66-0.64,2.16c-0.42,0.5-1.06,0.75-1.91,0.75
				C179.29,93.43,178.65,93.18,178.23,92.68 M178.12,118.97V97.92c0-0.36,0.22-0.65,0.49-0.65h3.05c0.27,0,0.49,0.29,0.49,0.65
				v21.06c0,0.36-0.22,0.65-0.49,0.65h-3.05C178.33,119.63,178.12,119.34,178.12,118.97"/>
			<path class="st1" d="M185.92,97.26h2.42c0.24,0,0.45,0.23,0.48,0.55l0.21,1.8h0.22c0.63-0.87,1.38-1.54,2.24-2.01
				c0.86-0.46,1.79-0.7,2.77-0.7c1.73,0,3.09,0.68,4.09,2.04c1,1.36,1.5,3.51,1.5,6.45v13.57c0,0.36-0.22,0.65-0.49,0.65h-3.04
				c-0.27,0-0.49-0.29-0.49-0.65v-13.27c0-1.49-0.24-2.55-0.71-3.19c-0.47-0.64-1.16-0.95-2.05-0.95c-0.67,0-1.34,0.19-1.99,0.56
				c-0.6,0.34-1.11,0.84-1.52,1.5c-0.08,0.12-0.12,0.28-0.12,0.43v14.91c0,0.36-0.22,0.65-0.49,0.65h-3.04
				c-0.27,0-0.49-0.29-0.49-0.65V97.92C185.44,97.56,185.65,97.26,185.92,97.26"/>
			<path class="st1" d="M213.39,97.77c1.05,0.57,1.84,1.5,2.35,2.8c0.52,1.3,0.77,3.06,0.77,5.29v13.12c0,0.36-0.22,0.65-0.49,0.65
				h-2.42c-0.24,0-0.44-0.23-0.48-0.55l-0.21-1.77h-0.21c-0.5,0.89-1.15,1.56-1.94,2.02c-0.79,0.46-1.67,0.69-2.63,0.69
				c-1.09,0-2.04-0.26-2.84-0.78c-0.8-0.52-1.41-1.25-1.83-2.2c-0.42-0.95-0.64-2.07-0.64-3.35c0-2.08,0.53-3.68,1.59-4.82
				c1.06-1.13,2.74-1.82,5.04-2.07l3.13-0.39v-0.88c0-1.13-0.14-2.03-0.41-2.68c-0.27-0.65-0.69-1.11-1.27-1.38
				c-0.58-0.27-1.35-0.41-2.32-0.41c-0.69,0-1.43,0.08-2.22,0.24c-0.57,0.11-1.13,0.27-1.68,0.46c-0.31,0.11-0.62-0.19-0.62-0.62
				v-2.76c0-0.29,0.14-0.55,0.35-0.63c0.66-0.25,1.39-0.44,2.19-0.58c0.93-0.16,1.82-0.25,2.66-0.25
				C210.96,96.91,212.34,97.2,213.39,97.77 M211.1,115.75c0.5-0.27,0.95-0.68,1.35-1.24c0.09-0.12,0.14-0.3,0.14-0.47v-3.77
				c0-0.38-0.25-0.68-0.53-0.65l-2.21,0.27c-1.05,0.14-1.82,0.47-2.31,1.01c-0.48,0.54-0.73,1.29-0.73,2.26
				c0,0.98,0.22,1.74,0.65,2.25c0.43,0.52,1.07,0.78,1.91,0.78C209.97,116.21,210.54,116.05,211.1,115.75"/>
			<path class="st1" d="M227.69,101.17c1.36-0.36,2.7-0.53,4.01-0.53c2.03,0,3.54,0.54,4.55,1.62c1,1.08,1.5,2.75,1.5,5.03
				c0,2.19-0.5,3.85-1.5,4.97c-1,1.12-2.5,1.68-4.5,1.68c-0.32,0-0.83-0.02-1.53-0.08v5.77h-2.53V101.17z M234.45,110.38
				c0.56-0.64,0.84-1.67,0.84-3.07c0-1.42-0.27-2.46-0.82-3.11c-0.55-0.66-1.4-0.98-2.55-0.98c-0.59,0-1.15,0.06-1.7,0.18v7.83
				c0.43,0.08,0.95,0.13,1.55,0.13C233,111.35,233.89,111.02,234.45,110.38"/>
			<path class="st1" d="M240.03,105.79h2.05l0.19,1.8h0.13c0.3-0.65,0.7-1.14,1.2-1.47c0.5-0.33,1.04-0.49,1.64-0.49
				c0.27,0,0.55,0.03,0.82,0.09v3.02c-0.25-0.06-0.57-0.09-0.97-0.09c-0.49,0-0.98,0.14-1.46,0.41c-0.48,0.27-0.85,0.66-1.12,1.15
				v9.42h-2.48V105.79z"/>
			<path class="st1" d="M255.93,113.7h-6.4c0.03,0.9,0.16,1.61,0.38,2.14c0.22,0.53,0.56,0.91,1.02,1.15
				c0.46,0.24,1.08,0.35,1.85,0.35c0.76,0,1.62-0.16,2.6-0.48v2.52c-0.99,0.33-1.97,0.49-2.94,0.49c-1.23,0-2.25-0.25-3.04-0.75
				c-0.79-0.5-1.39-1.27-1.78-2.33c-0.39-1.05-0.59-2.42-0.59-4.1c0-1.55,0.18-2.85,0.54-3.92c0.36-1.07,0.88-1.87,1.56-2.4
				c0.68-0.54,1.51-0.81,2.47-0.81c1.41,0,2.48,0.61,3.21,1.82c0.73,1.21,1.1,3.02,1.1,5.41V113.7z M250.07,108.66
				c-0.35,0.61-0.53,1.63-0.55,3.06h4.09c-0.02-1.43-0.19-2.45-0.53-3.06c-0.33-0.61-0.83-0.91-1.48-0.91
				C250.92,107.74,250.42,108.05,250.07,108.66"/>
			<path class="st1" d="M257.75,119.3v-2.49c1.01,0.41,2.05,0.61,3.13,0.61c0.73,0,1.27-0.15,1.61-0.44
				c0.34-0.29,0.51-0.72,0.51-1.27c0-0.45-0.09-0.79-0.27-1.03c-0.18-0.24-0.48-0.41-0.91-0.53l-1.57-0.39
				c-0.95-0.25-1.65-0.7-2.09-1.34c-0.44-0.64-0.65-1.49-0.65-2.57c0-0.86,0.17-1.61,0.51-2.25c0.34-0.64,0.85-1.14,1.54-1.49
				c0.69-0.36,1.54-0.53,2.56-0.53c0.95,0,1.84,0.14,2.65,0.43v2.47c-0.82-0.3-1.68-0.44-2.58-0.44c-1.56,0-2.34,0.58-2.34,1.73
				c0,0.41,0.09,0.73,0.26,0.97c0.17,0.24,0.47,0.42,0.89,0.54l1.57,0.39c0.95,0.25,1.65,0.69,2.09,1.3
				c0.45,0.61,0.67,1.49,0.67,2.62c0,0.89-0.17,1.65-0.51,2.3c-0.34,0.64-0.84,1.14-1.5,1.48c-0.66,0.35-1.46,0.52-2.39,0.52
				C259.73,119.88,258.68,119.69,257.75,119.3"/>
			<path class="st1" d="M267.44,102.96c-0.26-0.31-0.39-0.75-0.39-1.34c0-0.58,0.13-1.03,0.39-1.34c0.26-0.31,0.66-0.47,1.18-0.47
				c0.52,0,0.92,0.16,1.18,0.47c0.26,0.31,0.39,0.76,0.39,1.34c0,0.58-0.13,1.03-0.39,1.34c-0.26,0.31-0.66,0.46-1.18,0.46
				C268.1,103.42,267.71,103.26,267.44,102.96 M267.37,105.79h2.49v13.84h-2.49V105.79z"/>
			<path class="st1" d="M274.18,119.16c-0.63-0.47-1.13-1.22-1.5-2.25c-0.37-1.03-0.55-2.33-0.55-3.91c0-2.44,0.47-4.28,1.4-5.54
				c0.93-1.26,2.29-1.89,4.08-1.89c0.42,0,0.89,0.05,1.38,0.14v-6.57h2.48v20.49h-2.1l-0.15-1.46h-0.13
				c-0.31,0.52-0.7,0.94-1.18,1.24c-0.47,0.3-1.01,0.46-1.6,0.46C275.52,119.87,274.8,119.63,274.18,119.16 M278.11,116.82
				c0.35-0.21,0.65-0.51,0.88-0.92v-7.57c-0.42-0.13-0.89-0.19-1.38-0.19c-1.01,0-1.75,0.36-2.24,1.08
				c-0.49,0.72-0.73,1.89-0.73,3.51c0,1.61,0.2,2.74,0.62,3.41c0.41,0.66,1,1,1.75,1C277.38,117.13,277.75,117.03,278.11,116.82"/>
			<path class="st1" d="M292.64,113.7h-6.4c0.03,0.9,0.16,1.61,0.38,2.14c0.22,0.53,0.56,0.91,1.02,1.15
				c0.46,0.24,1.08,0.35,1.85,0.35c0.76,0,1.62-0.16,2.6-0.48v2.52c-0.99,0.33-1.97,0.49-2.94,0.49c-1.23,0-2.25-0.25-3.04-0.75
				c-0.79-0.5-1.39-1.27-1.78-2.33c-0.39-1.05-0.59-2.42-0.59-4.1c0-1.55,0.18-2.85,0.54-3.92c0.36-1.07,0.88-1.87,1.56-2.4
				c0.68-0.54,1.51-0.81,2.47-0.81c1.41,0,2.48,0.61,3.21,1.82c0.73,1.21,1.1,3.02,1.1,5.41V113.7z M286.78,108.66
				c-0.35,0.61-0.53,1.63-0.55,3.06h4.09c-0.02-1.43-0.19-2.45-0.53-3.06c-0.33-0.61-0.83-0.91-1.48-0.91
				C287.64,107.74,287.13,108.05,286.78,108.66"/>
			<path class="st1" d="M294.78,105.79h2.06l0.17,1.46h0.13c0.39-0.54,0.85-0.96,1.39-1.24c0.53-0.29,1.1-0.43,1.71-0.43
				c1.07,0,1.91,0.42,2.53,1.26c0.62,0.84,0.93,2.17,0.93,3.99v8.8h-2.48v-8.61c0-0.92-0.15-1.58-0.44-1.97
				c-0.29-0.39-0.71-0.59-1.27-0.59c-0.42,0-0.83,0.12-1.23,0.35c-0.4,0.23-0.74,0.58-1.01,1.05v9.78h-2.48V105.79z"/>
			<path class="st1" d="M307.19,118.11c-0.87-1.18-1.3-2.97-1.3-5.38c0-2.43,0.46-4.22,1.38-5.4c0.92-1.17,2.27-1.76,4.05-1.76
				c0.8,0,1.55,0.11,2.25,0.33v2.66c-0.69-0.19-1.33-0.29-1.92-0.29c-0.74,0-1.34,0.15-1.81,0.44c-0.47,0.3-0.82,0.77-1.04,1.41
				c-0.23,0.65-0.34,1.5-0.34,2.56c0,1.6,0.24,2.75,0.72,3.44c0.48,0.7,1.21,1.05,2.2,1.05c0.32,0,0.66-0.04,1.01-0.12
				c0.35-0.08,0.75-0.21,1.2-0.37v2.66c-0.81,0.35-1.67,0.53-2.58,0.53C309.32,119.88,308.05,119.29,307.19,118.11"/>
			<path class="st1" d="M315.71,102.96c-0.26-0.31-0.39-0.75-0.39-1.34c0-0.58,0.13-1.03,0.39-1.34c0.26-0.31,0.66-0.47,1.18-0.47
				c0.52,0,0.92,0.16,1.18,0.47c0.26,0.31,0.39,0.76,0.39,1.34c0,0.58-0.13,1.03-0.39,1.34c-0.26,0.31-0.66,0.46-1.18,0.46
				C316.36,103.42,315.97,103.26,315.71,102.96 M315.64,105.79h2.49v13.84h-2.49V105.79z"/>
			<path class="st1" d="M326.87,106.1c0.65,0.35,1.14,0.93,1.46,1.73c0.32,0.8,0.48,1.89,0.48,3.27v8.52h-2.06l-0.17-1.43h-0.13
				c-0.31,0.55-0.71,0.97-1.2,1.25c-0.49,0.28-1.03,0.42-1.63,0.42c-0.68,0-1.26-0.16-1.75-0.48c-0.49-0.32-0.87-0.78-1.13-1.36
				s-0.39-1.28-0.39-2.07c0-1.29,0.33-2.28,0.99-2.98c0.66-0.7,1.7-1.13,3.12-1.28l1.93-0.24v-0.55c0-0.7-0.08-1.25-0.25-1.65
				c-0.17-0.4-0.43-0.69-0.79-0.86c-0.36-0.17-0.84-0.25-1.44-0.25c-0.42,0-0.88,0.05-1.37,0.15c-0.49,0.1-0.97,0.24-1.42,0.44
				v-2.55c0.47-0.19,0.99-0.34,1.57-0.44c0.58-0.1,1.13-0.15,1.65-0.15C325.37,105.58,326.22,105.75,326.87,106.1 M325.45,117.23
				c0.34-0.19,0.65-0.48,0.92-0.89v-2.94l-1.7,0.2c-0.65,0.08-1.13,0.29-1.43,0.63c-0.3,0.33-0.45,0.8-0.45,1.4
				c0,0.61,0.13,1.07,0.4,1.39c0.27,0.32,0.66,0.48,1.18,0.48C324.75,117.51,325.11,117.42,325.45,117.23"/>
			<path class="st2" d="M38.46,97.59h-4.32c-0.94,0-1.46-0.52-1.73-0.96c-0.23-0.38-0.38-0.86-0.45-1.42
				c-0.01-0.04-0.01-0.09-0.01-0.13c-0.05-0.53-0.03-1.11,0.06-1.74c0.56-3.77,1.69-6.32,2.63-7.88c-0.1-0.04-0.2-0.1-0.3-0.17
				c-0.6-0.45-0.88-1.37-0.75-2.4c0.16-1.25,1.05-2.52,1.2-2.74c1.49-2.32,3.69-2.45,3.97-2.46c0.33-0.03,3.24-0.2,4.8,3.88
				c1.87,4.88,2.32,8.9,2.67,12.14l0.02,0.15c0.06,0.56,0.03,1.04-0.04,1.43c-0.01,0.04-0.02,0.09-0.03,0.13
				c-0.11,0.45-0.28,0.78-0.44,1.02c-0.39,0.56-0.96,0.93-1.7,1.09c-0.31,0.07-0.59,0.08-0.76,0.08c-0.08,0-0.15,0-0.18-0.01h-1.24
				h-0.02h-0.03h-2.07v8.16h19.26c0-4.78-0.53-9.41-1.58-13.77c-1.01-4.21-2.45-7.98-4.29-11.22c-1.83-3.23-3.96-5.76-6.33-7.53
				c-2.44-1.82-5.04-2.75-7.71-2.75s-5.27,0.92-7.71,2.75c-2.37,1.77-4.5,4.3-6.33,7.53c-1.84,3.24-3.28,7.01-4.29,11.22
				c-1.05,4.36-1.58,8.99-1.58,13.77h19.26V97.59z"/>
			<path class="st3" d="M19.2,105.75c0,3.63,0.31,7.17,0.91,10.57c8.61-1.31,13.76-2.67,15.28-4.03c1.07-1.01,1.94-1.6,3.07-1.56
				v-4.99H19.2z"/>
			<path class="st3" d="M39.75,110.93c0.77,0.19,1.33,0.47,1.97,0.89c0.06,0,0.13-0.01,0.19-0.01c1.1-0.07,2.04,0.39,3.34,1.01
				c0.35,0.17,0.76,0.37,1.2,0.57c0.19,0.08,6.38,2.68,11.63,3.08c0.62-3.45,0.94-7.04,0.94-10.72H39.75V110.93z"/>
			<path class="st1" d="M37.83,65.98L37.83,65.98L37.83,65.98z"/>
			<polyline class="st1" points="33.81,66.77 33.81,66.77 33.81,66.77 			"/>
			<path class="st3" d="M47.6,122.19c-0.08,0.23-0.19,0.46-0.35,0.67c-0.32,0.42-0.76,0.64-1.29,0.67c-0.07,0.2-0.17,0.44-0.32,0.68
				c-0.29,0.45-0.81,0.93-1.69,0.88c-0.08,0.19-0.19,0.41-0.34,0.61c-0.43,0.58-1.01,0.81-1.64,0.67c-0.15,0.16-0.37,0.36-0.67,0.52
				c-0.36,0.19-0.89,0.34-1.54,0.17v6.83c0,0.48-0.29,0.87-0.65,0.87c-0.36,0-0.65-0.39-0.65-0.87v-6.54
				c-0.26,0.13-0.54,0.22-0.83,0.22c-0.11,0-0.23-0.01-0.34-0.04c-0.36-0.1-0.67-0.35-0.91-0.75c-0.43,0.09-1.19,0.16-1.72-0.33
				c-0.22-0.2-0.38-0.48-0.48-0.81c-0.17-0.03-0.39-0.08-0.61-0.17c-0.57-0.24-0.95-0.68-1.13-1.27c-0.13-0.01-0.28-0.02-0.44-0.06
				c-0.47-0.1-1.07-0.36-1.31-1.09c-0.05-0.16-0.08-0.32-0.1-0.48c-2.74,1.89-5.88,3.78-7.29,4.61c0.54,1.25,1.14,2.45,1.78,3.57
				c1.83,3.23,3.96,5.76,6.33,7.53c1.11,0.82,2.24,1.46,3.4,1.92c0.12-0.29,0.29-0.54,0.5-0.73c1.1-0.96,3.21-0.26,3.8-0.03
				c0.59-0.23,2.7-0.93,3.8,0.03c0.22,0.19,0.39,0.44,0.5,0.74c1.16-0.45,2.3-1.09,3.41-1.92c2.37-1.77,4.5-4.3,6.33-7.53
				c0.6-1.06,1.16-2.18,1.68-3.35C53.26,126.52,49.81,124.49,47.6,122.19"/>
			<path class="st2" d="M40.87,145.57c0.04-0.19,0.05-0.39,0.05-0.59c0-0.19-0.02-0.37-0.05-0.54c0.65-0.17,1.7-0.59,2.28-1.54
				c0.34-0.56,0.48-1.21,0.42-1.94c-0.05-0.64-0.29-1.17-0.68-1.51c-1.11-0.96-3.21-0.26-3.8-0.03c-0.59-0.23-2.7-0.93-3.8,0.03
				c-0.39,0.34-0.63,0.86-0.68,1.51c-0.06,0.73,0.08,1.39,0.42,1.94c0.59,0.96,1.65,1.38,2.3,1.55c-0.03,0.17-0.05,0.35-0.05,0.54
				c0,0.2,0.02,0.39,0.05,0.58c-0.47,0.62-1.99,2.41-4.19,2.73c0.06,0.15,0.26,0.57,0.64,1.03c1.96-0.49,3.34-1.93,3.97-2.71
				c0.06,0.09,0.13,0.18,0.2,0.26c-0.14,0.72-0.72,2.57-3.11,3.37c0.39,0.24,0.87,0.44,1.43,0.55c1.66-1.01,2.25-2.54,2.46-3.43
				c0.12,0.03,0.24,0.05,0.36,0.05c0.12,0,0.23-0.02,0.34-0.04c0.21,0.89,0.8,2.42,2.46,3.42c0.57-0.11,1.04-0.31,1.43-0.55
				c-2.37-0.8-2.96-2.63-3.1-3.36c0.08-0.08,0.14-0.17,0.21-0.26c0.63,0.78,2.02,2.21,3.96,2.7c0.38-0.46,0.58-0.88,0.64-1.03
				C42.87,147.97,41.35,146.21,40.87,145.57"/>
			<path class="st3" d="M42.44,140.41c0.18,0.16,0.27,0.37,0.3,0.68c0.04,0.42-0.04,0.77-0.23,1.09c-0.25,0.41-0.68,0.71-1.11,0.9
				c0.21-0.58,0.24-1.16,0.09-1.71c-0.15-0.55-0.4-0.94-0.69-1.22C41.45,140.06,42.08,140.1,42.44,140.41"/>
			<path class="st3" d="M37.53,141.76c0.32-1.15,1.53-1.17,1.57-1.17h0c0,0,0.33,0,0.69,0.15c0.45,0.19,0.75,0.54,0.88,1.02
				c0.15,0.52-0.13,1.06-0.37,1.41c-0.32-0.38-0.74-0.61-1.2-0.61c-0.47,0-0.89,0.24-1.21,0.62
				C37.66,142.83,37.38,142.29,37.53,141.76"/>
			<path class="st3" d="M36.81,143.07c-0.42-0.2-0.85-0.49-1.11-0.9c-0.19-0.31-0.27-0.67-0.23-1.09c0.03-0.31,0.12-0.52,0.3-0.68
				c0.25-0.22,0.65-0.3,1.09-0.3c0.18,0,0.37,0.01,0.56,0.04c-0.28,0.28-0.53,0.67-0.69,1.22
				C36.55,141.99,36.64,142.58,36.81,143.07"/>
			<path class="st3" d="M38.15,144.98c0-0.71,0.43-1.28,0.96-1.28c0.53,0,0.96,0.58,0.96,1.28c0,0.71-0.43,1.28-0.96,1.28
				C38.58,146.26,38.15,145.69,38.15,144.98"/>
			<path class="st3" d="M44.41,149.32c-1.95-0.49-3.33-1.92-3.96-2.7c-0.06,0.09-0.13,0.18-0.21,0.26c0.14,0.73,0.73,2.56,3.1,3.36
				C43.8,149.97,44.15,149.64,44.41,149.32"/>
			<path class="st3" d="M37.77,146.61c-0.63,0.78-2.02,2.22-3.97,2.71c0.26,0.31,0.61,0.65,1.07,0.92c2.38-0.8,2.97-2.66,3.11-3.38
				C37.9,146.79,37.83,146.7,37.77,146.61"/>
			<path class="st1" d="M63.21,112.61c0.02-0.19-0.04-0.37-0.14-0.49c-0.08-0.09-0.19-0.14-0.29-0.13c0.08-0.23,0.16-0.47,0.23-0.72
				c0.3-1.09,0.46-2.36,0.47-3.75c0-0.19-0.07-0.36-0.18-0.46c-0.08-0.08-0.19-0.11-0.28-0.09c0.06-0.23,0.12-0.47,0.16-0.71
				c0.22-1.13,0.28-2.4,0.19-3.79c-0.01-0.19-0.09-0.35-0.22-0.44c-0.09-0.07-0.2-0.08-0.29-0.05c0.05-0.27,0.1-0.55,0.13-0.84
				c0.13-1.15,0.11-2.43-0.09-3.8c-0.03-0.18-0.12-0.34-0.25-0.41c-0.07-0.04-0.15-0.05-0.22-0.04c0.03-0.19,0.05-0.39,0.06-0.59
				c0.09-1.16,0.02-2.43-0.22-3.79c-0.03-0.18-0.13-0.33-0.26-0.39c-0.13-0.06-0.28-0.03-0.39,0.08c0,0,0,0,0,0
				c0.02-0.3,0.02-0.61,0.02-0.92c-0.03-1.17-0.23-2.41-0.61-3.71c-0.05-0.17-0.16-0.3-0.3-0.34c-0.11-0.03-0.23,0-0.32,0.08
				c-0.01-0.28-0.02-0.56-0.05-0.85c-0.12-1.15-0.42-2.37-0.9-3.61c-0.06-0.17-0.18-0.28-0.32-0.3c-0.11-0.02-0.22,0.03-0.31,0.13
				c-0.03-0.26-0.07-0.52-0.12-0.78c-0.22-1.13-0.62-2.29-1.21-3.45c-0.08-0.15-0.21-0.24-0.35-0.24c-0.14,0-0.26,0.09-0.34,0.24
				c-0.07-0.3-0.15-0.61-0.25-0.91c-0.35-1.07-0.89-2.13-1.61-3.15c-0.1-0.14-0.25-0.2-0.39-0.16c-0.1,0.03-0.19,0.11-0.25,0.22
				c-0.11-0.3-0.23-0.6-0.37-0.89c-0.47-0.98-1.12-1.9-1.92-2.74c-0.11-0.11-0.26-0.15-0.39-0.09c-0.11,0.05-0.19,0.15-0.24,0.28
				c-0.54-0.96-1.3-1.68-2.26-2.14c0.17,0.02,0.34,0.04,0.52,0.06c1.14,0.09,1.95-0.23,1.98-0.24c0.24-0.1,0.4-0.42,0.37-0.75
				c-0.03-0.34-0.24-0.6-0.49-0.61c-1.25-0.08-1.72-0.42-2.31-0.86c-0.11-0.08-0.23-0.17-0.35-0.25l2.93-0.59
				c0.26-0.05,0.45-0.35,0.45-0.69c0-0.35-0.19-0.64-0.45-0.69l-2.91-0.56c0.34-0.12,0.73-0.27,1.13-0.46
				c1.08-0.5,1.73-1.21,1.76-1.24c0.2-0.22,0.25-0.59,0.12-0.89c-0.13-0.3-0.39-0.43-0.63-0.31c-1.18,0.57-1.71,0.49-2.38,0.4
				c-0.13-0.02-0.26-0.04-0.4-0.05L51,59.08c0.22-0.18,0.31-0.55,0.21-0.87c-0.1-0.32-0.36-0.49-0.61-0.41l-2.86,0.97
				c0.28-0.29,0.6-0.63,0.92-1.01c0.86-1.02,1.25-2.01,1.27-2.05c0.12-0.3,0.06-0.67-0.14-0.88c-0.2-0.21-0.48-0.19-0.67,0.04
				c-0.92,1.13-1.44,1.33-2.09,1.59c-0.12,0.05-0.24,0.1-0.37,0.15l1.76-3.17c0.15-0.28,0.13-0.67-0.05-0.91
				c-0.18-0.24-0.47-0.27-0.68-0.07l-2.37,2.37c0.18-0.41,0.37-0.9,0.56-1.42c0.5-1.38,0.58-2.5,0.59-2.55
				c0.02-0.34-0.14-0.65-0.38-0.74c-0.25-0.09-0.5,0.07-0.61,0.38c-0.53,1.51-0.95,1.97-1.47,2.54c-0.1,0.1-0.19,0.21-0.3,0.33
				l0.72-3.82c0.06-0.34-0.07-0.68-0.31-0.82c-0.24-0.13-0.52-0.01-0.65,0.29l-1.52,3.41c0.05-0.47,0.09-1.03,0.12-1.61
				c0.07-1.53-0.18-2.61-0.19-2.65c-0.07-0.32-0.31-0.53-0.57-0.49c-0.25,0.04-0.44,0.32-0.46,0.66c-0.06,1.67-0.31,2.3-0.63,3.1
				c-0.06,0.14-0.12,0.29-0.18,0.45l-0.42-3.89c-0.04-0.34-0.26-0.6-0.52-0.6h0c-0.26,0-0.48,0.26-0.52,0.6l-0.41,3.87
				c-0.09-0.45-0.2-0.96-0.34-1.49c-0.37-1.45-0.91-2.32-0.93-2.36c-0.16-0.26-0.44-0.33-0.66-0.16c-0.22,0.17-0.32,0.52-0.23,0.84
				c0.42,1.57,0.37,2.29,0.29,3.19c-0.01,0.17-0.03,0.35-0.04,0.54l-1.53-3.4c-0.13-0.3-0.41-0.42-0.65-0.28
				c-0.24,0.13-0.37,0.48-0.3,0.82l0.73,3.8c-0.21-0.37-0.47-0.79-0.75-1.22c-0.76-1.15-1.5-1.68-1.53-1.7
				c-0.22-0.16-0.5-0.08-0.66,0.19c-0.16,0.27-0.14,0.65,0.03,0.9c0.84,1.24,0.99,1.92,1.18,2.79c0.04,0.16,0.07,0.33,0.12,0.51
				l-2.38-2.36c-0.21-0.21-0.5-0.18-0.68,0.07c-0.18,0.25-0.2,0.63-0.05,0.91l1.77,3.15c-0.3-0.23-0.66-0.5-1.05-0.75
				c-1.03-0.67-1.87-0.78-1.9-0.79c-0.25-0.03-0.49,0.18-0.55,0.51c-0.07,0.33,0.05,0.67,0.28,0.82c1.13,0.71,1.47,1.27,1.89,1.97
				c0.08,0.13,0.16,0.27,0.25,0.41l-2.87-0.96c-0.25-0.08-0.51,0.09-0.61,0.41c-0.1,0.32-0.01,0.69,0.22,0.87l2.54,2.02
				c-0.35-0.06-0.76-0.12-1.19-0.15c-1.14-0.09-1.95,0.24-1.98,0.25c-0.24,0.1-0.4,0.42-0.36,0.76c0.03,0.34,0.24,0.59,0.49,0.61
				c1.25,0.08,1.72,0.42,2.31,0.85c0.11,0.08,0.22,0.16,0.34,0.24l-2.92,0.57C26.19,64.29,26,64.59,26,64.93
				c0,0.35,0.19,0.64,0.45,0.69l2.94,0.57c-0.34,0.12-0.74,0.28-1.15,0.47c-1.08,0.51-1.73,1.22-1.76,1.25
				c-0.2,0.22-0.25,0.59-0.12,0.89c0.13,0.3,0.39,0.43,0.63,0.31c0.68-0.33,1.15-0.44,1.55-0.46c-0.63,0.74-1.08,1.33-1.31,1.7
				c-0.12,0.2-0.23,0.4-0.33,0.61c-0.05-0.11-0.13-0.19-0.22-0.23c-0.13-0.06-0.28-0.03-0.39,0.09c-0.83,0.86-1.49,1.79-1.96,2.77
				c-0.14,0.29-0.26,0.58-0.37,0.88c-0.06-0.13-0.16-0.22-0.28-0.24c-0.14-0.03-0.28,0.03-0.37,0.17c-0.72,1.02-1.26,2.08-1.61,3.15
				c-0.09,0.29-0.17,0.57-0.24,0.86c-0.07-0.09-0.16-0.15-0.27-0.15c-0.14-0.01-0.27,0.07-0.35,0.22c-0.62,1.12-1.06,2.26-1.31,3.38
				c-0.07,0.29-0.12,0.59-0.16,0.88c-0.09-0.13-0.22-0.2-0.35-0.18c-0.14,0.02-0.26,0.13-0.33,0.29c-0.49,1.23-0.79,2.44-0.92,3.6
				c-0.03,0.29-0.05,0.58-0.06,0.86c-0.1-0.11-0.23-0.15-0.35-0.11c-0.14,0.04-0.25,0.17-0.29,0.34c-0.37,1.31-0.56,2.56-0.57,3.73
				c0,0.28,0,0.57,0.02,0.84c-0.11-0.08-0.23-0.1-0.35-0.04c-0.13,0.06-0.23,0.21-0.26,0.39c-0.24,1.36-0.32,2.63-0.22,3.79
				c0.02,0.22,0.04,0.43,0.07,0.65c-0.06-0.01-0.12,0.01-0.18,0.04c-0.13,0.07-0.22,0.22-0.25,0.41c-0.19,1.37-0.22,2.65-0.09,3.8
				c0.03,0.29,0.08,0.59,0.14,0.87c-0.06,0-0.11,0.02-0.17,0.06c-0.13,0.08-0.21,0.24-0.23,0.43c-0.13,1.38-0.1,2.66,0.09,3.8
				c0.04,0.25,0.09,0.49,0.15,0.73c-0.09-0.02-0.19,0.01-0.27,0.08c-0.12,0.1-0.19,0.27-0.19,0.46c-0.02,1.39,0.11,2.66,0.39,3.77
				c0.08,0.32,0.17,0.63,0.28,0.93c-0.03-0.01-0.04-0.02-0.05-0.02c-0.14-0.05-0.28,0-0.38,0.12c-0.1,0.13-0.15,0.31-0.13,0.5
				c0.16,1.38,0.46,2.59,0.88,3.62c0.08,0.2,0.17,0.39,0.26,0.58c-0.07,0.03-0.14,0.08-0.19,0.15c-0.1,0.14-0.14,0.33-0.1,0.51
				c0.24,1.36,0.6,2.54,1.08,3.52c0.11,0.23,0.23,0.46,0.36,0.67c-0.11,0.02-0.21,0.09-0.28,0.22c-0.08,0.15-0.11,0.34-0.06,0.52
				c0.36,1.31,0.82,2.43,1.37,3.34c0.12,0.2,0.25,0.39,0.38,0.57c-0.1,0.04-0.19,0.13-0.24,0.25c-0.07,0.16-0.08,0.36-0.01,0.53
				c0.47,1.25,1.03,2.29,1.66,3.1c0.13,0.17,0.27,0.33,0.41,0.49c-0.09,0.05-0.17,0.15-0.21,0.28c-0.06,0.17-0.05,0.37,0.03,0.53
				c0.56,1.17,1.2,2.14,1.89,2.86c0.21,0.22,0.43,0.41,0.65,0.59c-0.05,0.02-0.08,0.03-0.09,0.04c-0.13,0.06-0.23,0.21-0.26,0.39
				c-0.03,0.18,0.01,0.37,0.1,0.51c0.72,1,1.46,1.8,2.21,2.36c0.61,0.46,1.22,0.77,1.82,0.92c0.52,0.13,1.04,0.14,1.47,0.02
				c0.03-0.01,0.06-0.01,0.08-0.02c1.29,1.21,2.65,2.23,4.05,3.02c1.18,0.66,2.38,1.18,3.59,1.52c0.25,0.07,0.49,0.13,0.72,0.19
				c-0.5-0.25-1.03-0.63-1.38-1.2c-0.06-0.1-0.11-0.21-0.16-0.31c-0.83-0.3-1.66-0.68-2.47-1.14c-1.34-0.76-2.65-1.73-3.88-2.88
				c0.01-0.03,0.01-0.05,0.01-0.06c0.02-0.56-0.03-1.12-0.14-1.68c0.89,0.96,1.68,1.74,2.55,2.39c1.18,0.88,2.4,1.56,3.66,2.04
				c0-0.1,0-0.19,0.01-0.29c0.02-0.28,0.08-0.54,0.18-0.77c-1.16-0.45-2.3-1.09-3.4-1.92c-2.37-1.77-4.5-4.3-6.33-7.53
				c-0.64-1.13-1.23-2.32-1.77-3.57c1.41-0.83,4.54-2.72,7.28-4.61c0.02,0.16,0.05,0.32,0.1,0.48c0.24,0.73,0.84,1,1.31,1.09
				c0.16,0.03,0.31,0.05,0.44,0.05c0.18,0.59,0.57,1.03,1.13,1.27c0.22,0.09,0.44,0.14,0.61,0.17c0.1,0.33,0.26,0.61,0.48,0.81
				c0.54,0.49,1.29,0.42,1.72,0.33c0.24,0.4,0.55,0.65,0.91,0.75c0.11,0.03,0.23,0.04,0.34,0.04c0.29,0,0.58-0.09,0.83-0.22v6.54
				c0,0.48,0.29,0.87,0.65,0.87c0.36,0,0.65-0.39,0.65-0.87v-6.83c0.65,0.17,1.18,0.03,1.55-0.17c0.29-0.15,0.52-0.36,0.67-0.52
				c0.63,0.15,1.21-0.08,1.64-0.67c0.15-0.21,0.26-0.42,0.34-0.61c0.87,0.05,1.39-0.43,1.69-0.88c0.15-0.23,0.25-0.47,0.32-0.68
				c0.54-0.03,0.97-0.25,1.29-0.67c0.16-0.21,0.28-0.44,0.35-0.67c2.22,2.3,5.67,4.33,7.23,5.19c-0.52,1.17-1.08,2.29-1.68,3.35
				c-1.83,3.23-3.96,5.76-6.33,7.53c-1.11,0.83-2.24,1.46-3.41,1.92c0.09,0.23,0.15,0.49,0.18,0.77c0.01,0.1,0.01,0.2,0.01,0.29
				c1.25-0.48,2.47-1.16,3.66-2.04c0.93-0.69,1.78-1.56,2.58-2.42c-0.12,0.56-0.17,1.13-0.15,1.7c0,0.03,0,0.05,0.01,0.08
				c-0.38,0.39-1.38,1.35-2.85,2.31c-1.1,0.72-2.24,1.29-3.4,1.7c-0.05,0.02-0.1,0.03-0.15,0.05c-0.04,0.09-0.09,0.18-0.14,0.26
				c-0.36,0.59-0.9,0.97-1.41,1.22c0.64-0.13,1.28-0.31,1.91-0.54c1.2-0.43,2.4-1.03,3.54-1.78c1.54-1.01,2.58-2.02,2.97-2.42
				c0.02,0.01,0.04,0.02,0.06,0.03c0.44,0.12,0.95,0.11,1.48-0.02c0.6-0.15,1.21-0.46,1.82-0.92c0.74-0.56,1.49-1.36,2.21-2.36
				c0.1-0.14,0.14-0.33,0.1-0.51c-0.03-0.18-0.13-0.33-0.26-0.39c-0.01,0-0.03-0.01-0.06-0.03c0.22-0.18,0.45-0.38,0.66-0.6
				c0.69-0.72,1.33-1.68,1.89-2.86c0.08-0.16,0.09-0.36,0.03-0.53c-0.04-0.13-0.12-0.22-0.21-0.28c0.14-0.15,0.28-0.32,0.41-0.49
				c0.63-0.81,1.19-1.85,1.66-3.1c0.06-0.17,0.06-0.36-0.01-0.53c-0.06-0.15-0.17-0.24-0.3-0.27c0.14-0.19,0.28-0.4,0.42-0.61
				c0.56-0.9,1.02-2.03,1.37-3.34c0.04-0.17,0.03-0.35-0.05-0.5c-0.07-0.15-0.2-0.24-0.33-0.24h0c0.12-0.2,0.24-0.41,0.35-0.63
				c0.49-0.97,0.86-2.15,1.12-3.5c0.03-0.18,0-0.37-0.1-0.51c-0.09-0.12-0.21-0.19-0.33-0.18c0.11-0.24,0.22-0.49,0.32-0.75
				C62.81,115.22,63.08,113.99,63.21,112.61 M62.72,108.28c0.01,0.01,0.01,0.02,0.01,0.03c-0.05,0.95-0.18,1.82-0.39,2.59
				c-0.21,0.78-0.5,1.46-0.86,2.03c-0.42,0.67-0.86,1.02-1.03,1.14c0,0-0.01,0-0.01,0c-0.01,0-0.01,0-0.02-0.01
				c-0.57-1.04-0.85-2.31-0.83-3.79c0.01-0.47,0.04-0.95,0.11-1.42c0-0.01,0.01-0.02,0.02-0.02c0.01,0,0.02,0,0.02,0.01
				c0.51,0.84,0.79,1.94,0.8,1.95c0.04,0.16,0.15,0.27,0.27,0.28c0.12,0.01,0.24-0.08,0.3-0.23c0.47-1.32,1.13-2.12,1.59-2.55
				C62.7,108.27,62.71,108.27,62.72,108.28 M62.64,103.32c0.01-0.01,0.02-0.01,0.02,0c0.01,0,0.01,0.01,0.01,0.03
				c0.02,0.95-0.05,1.84-0.2,2.63c-0.15,0.8-0.39,1.52-0.71,2.13c-0.37,0.72-0.78,1.13-0.94,1.27c0,0-0.01,0-0.01,0
				c-0.01,0-0.01,0-0.02-0.01c-1.01-1.53-1.1-3.79-1.07-5c0-0.01,0.01-0.02,0.01-0.03c0.01,0,0.02,0,0.02,0.01
				c0.55,0.79,0.91,1.76,0.91,1.77c0.06,0.15,0.17,0.24,0.29,0.23c0.12-0.01,0.23-0.12,0.27-0.27
				C61.62,104.7,62.21,103.82,62.64,103.32 M62.24,98.29c0.01-0.01,0.01-0.01,0.02-0.01c0.01,0,0.01,0.01,0.01,0.02
				c0.09,0.94,0.09,1.83,0,2.64c-0.09,0.82-0.28,1.56-0.55,2.21c-0.32,0.78-0.71,1.24-0.86,1.4c0,0-0.01,0.01-0.01,0.01
				c-0.01,0-0.01,0-0.01-0.01c-0.99-1.11-1.3-3.49-1.39-4.82c0-0.01,0-0.02,0.01-0.03c0.01,0,0.02,0,0.02,0c0.58,0.71,1,1.59,1,1.6
				c0.07,0.14,0.19,0.21,0.31,0.19c0.12-0.03,0.22-0.15,0.25-0.31C61.32,99.79,61.85,98.84,62.24,98.29 M61.65,93.51
				c0.01-0.01,0.01-0.01,0.02-0.01c0.01,0,0.01,0.01,0.02,0.02c0.12,0.94,0.15,1.83,0.09,2.64c-0.06,0.82-0.22,1.58-0.47,2.24
				c-0.29,0.78-0.65,1.27-0.79,1.44c0,0-0.01,0.01-0.01,0.01c0,0-0.01,0-0.01-0.01c-0.84-0.95-1.24-2.34-1.42-3.35
				c-0.08-0.45-0.15-0.92-0.18-1.4c0-0.01,0-0.02,0.01-0.03c0.01-0.01,0.02,0,0.02,0c0.62,0.67,1.09,1.57,1.1,1.58
				c0.07,0.14,0.19,0.2,0.32,0.17c0.12-0.03,0.22-0.16,0.24-0.32C60.78,95.07,61.27,94.08,61.65,93.51 M33.08,93.82
				c0.01-0.06,0.02-0.13,0.03-0.19c0.49-3.29,1.45-5.54,2.18-6.84c0.54-0.98,1.03-1.59,1.28-1.86c0.08-0.08,0.16-0.16,0.23-0.25
				c0.24-0.27,0.27-0.74,0.08-1.07c-0.19-0.33-0.54-0.4-0.8-0.16c-0.02,0.02-0.11,0.11-0.25,0.26c-0.55,0.51-0.86,0.35-0.94,0.28
				c-0.18-0.13-0.25-0.45-0.2-0.84c0.09-0.71,0.69-1.66,0.91-1.96c0.01-0.01,0.02-0.03,0.03-0.04c1.21-1.91,3.13-1.95,3.15-1.95
				c0.02,0,0.04,0,0.05,0c0.01,0,0.61-0.07,1.36,0.26c1.03,0.45,1.83,1.4,2.37,2.81c0.76,1.97,1.33,3.97,1.76,6.09
				c-1.07-0.52-1.93-1.44-1.93-1.45c-0.25-0.28-0.62-0.23-0.83,0.1c-0.1,0.16-0.15,0.36-0.13,0.57c0.01,0.21,0.09,0.4,0.21,0.53
				c0.06,0.06,1.38,1.51,2.99,2c0.11,0.72,0.22,1.47,0.32,2.36c-0.51-0.35-1.12-0.57-1.62-0.74c-0.34-0.12-0.66-0.23-0.91-0.37
				c-1.1-0.59-2.03-1.57-2.04-1.58c-0.25-0.27-0.62-0.21-0.82,0.13c-0.2,0.34-0.16,0.83,0.1,1.1c0.04,0.05,1.08,1.13,2.34,1.81
				c0.32,0.17,0.67,0.29,1.05,0.43c1.39,0.49,2.02,0.87,2.05,1.8c-0.04,0.14-0.1,0.27-0.18,0.38c-0.44,0.64-1.42,0.71-1.76,0.68
				c-0.01,0-0.03,0-0.04,0h-1.31c-0.26-0.01-1.6-0.08-2.75-1.08C36.1,92.45,34.75,92.85,33.08,93.82 M38.14,96.09h-4
				c-0.41,0-0.69-0.14-0.86-0.41c-0.04-0.06-0.07-0.13-0.1-0.2C34.86,94.46,35.74,94.1,38.14,96.09 M39.75,105.75v-8.16h2.07h0.03
				h0.02h1.24c0.03,0,0.09,0,0.18,0c0.18,0,0.45-0.01,0.76-0.08c0.74-0.16,1.31-0.52,1.7-1.09c0.16-0.23,0.33-0.57,0.44-1.02
				c0.01-0.04,0.02-0.08,0.03-0.13c0.08-0.39,0.1-0.86,0.04-1.43l-0.02-0.15c-0.36-3.23-0.8-7.26-2.67-12.14
				c-1.57-4.08-4.48-3.92-4.8-3.88c-0.27,0.01-2.48,0.13-3.97,2.46c-0.16,0.22-1.04,1.49-1.2,2.74c-0.13,1.03,0.16,1.94,0.75,2.4
				c0.1,0.07,0.2,0.13,0.3,0.17c-0.93,1.56-2.06,4.11-2.62,7.88c-0.09,0.63-0.11,1.22-0.06,1.74c0,0.04,0.01,0.09,0.01,0.13
				c0.07,0.56,0.22,1.04,0.45,1.42c0.27,0.44,0.79,0.96,1.73,0.96h4.32v8.16v4.99c-1.13-0.04-1.99,0.54-3.07,1.55
				c-1.53,1.36-6.67,2.72-15.28,4.03c-0.61-3.4-0.91-6.95-0.91-10.57c0-4.78,0.53-9.41,1.58-13.77c1.01-4.21,2.45-7.98,4.29-11.22
				c1.83-3.23,3.96-5.76,6.33-7.53c2.44-1.82,5.04-2.75,7.71-2.75c2.67,0,5.27,0.92,7.71,2.75c2.37,1.77,4.5,4.3,6.33,7.53
				c1.84,3.24,3.28,7.01,4.29,11.22c1.05,4.36,1.58,8.99,1.58,13.77c0,3.68-0.32,7.27-0.94,10.72c-5.24-0.4-11.44-3-11.63-3.08
				c-0.44-0.2-0.84-0.39-1.2-0.57c-1.3-0.63-2.24-1.08-3.34-1.01c-0.06,0-0.13,0.01-0.19,0.01c-0.64-0.41-1.19-0.7-1.97-0.89V105.75
				z M47.89,68.87c-0.32,0.17-0.81,0.4-1.37,0.53c-0.35,0.09-0.69,0.13-1.01,0.13c-0.75,0-1.4-0.25-1.93-0.75
				c-0.01-0.01-0.01-0.01-0.01-0.02c0-0.01,0-0.02,0.01-0.02c0.24-0.19,0.63-0.44,1.13-0.6c0.54-0.17,1.09-0.19,1.63-0.07
				c0.51,0.12,1.03,0.37,1.53,0.74c0.01,0.01,0.01,0.02,0.01,0.03C47.91,68.85,47.9,68.86,47.89,68.87 M48.65,71.71
				c0.01,0.01,0.01,0.02,0.01,0.03c0,0.01-0.01,0.02-0.01,0.02c-0.22,0.1-0.56,0.22-0.99,0.25c-0.05,0-0.1,0-0.15,0
				c-0.89,0-1.77-0.44-2.6-1.3c-0.01-0.01-0.01-0.02-0.01-0.03c0-0.01,0.01-0.02,0.02-0.02c0.37-0.16,0.75-0.25,1.12-0.28
				C47.08,70.28,47.96,70.74,48.65,71.71 M44.53,67.29c-0.35,0.22-0.96,0.51-1.87,0.66c-0.13,0.02-0.23,0.15-0.26,0.31
				c-0.03,0.17,0.02,0.34,0.12,0.44c0.01,0.01,0.71,0.66,1.23,1.52c0.01,0.01,0.01,0.02,0,0.03c0,0.01-0.01,0.02-0.02,0.02h0
				c-0.86-0.04-2.47-0.37-3.62-2.21c-0.01-0.01-0.01-0.03,0-0.04c0.18-0.23,0.5-0.56,0.99-0.81c0.92-0.46,2.1-0.45,3.43,0.03
				c0.01,0,0.02,0.01,0.02,0.03C44.54,67.27,44.53,67.28,44.53,67.29 M40.68,66.45c-0.3,0.32-0.86,0.78-1.76,1.14
				c-0.13,0.05-0.21,0.2-0.22,0.38c0,0.18,0.08,0.34,0.2,0.4c0.01,0,0.77,0.39,1.39,1.09c0.01,0.01,0.01,0.02,0.01,0.03
				c0,0.01-0.01,0.02-0.02,0.02c-0.22,0.03-0.48,0.05-0.77,0.05c-0.93,0-2.14-0.22-3.08-1.18c-0.01-0.01-0.01-0.03,0-0.04
				c0.14-0.28,0.4-0.68,0.84-1.05c0.84-0.71,2.01-1.02,3.4-0.89c0.01,0,0.02,0.01,0.02,0.02S40.68,66.44,40.68,66.45 M36.72,66.53
				c-0.23,0.41-0.68,1.02-1.59,1.62c-0.12,0.08-0.19,0.25-0.17,0.43c0.02,0.18,0.12,0.32,0.25,0.35c0.01,0,0.81,0.21,1.53,0.69
				c0.01,0,0.01,0.02,0.01,0.03c0,0.01-0.01,0.02-0.02,0.03c-0.34,0.15-0.68,0.27-1.02,0.34c-0.31,0.07-0.67,0.13-1.06,0.13
				c-0.58,0-1.23-0.12-1.84-0.5c-0.01-0.01-0.01-0.02-0.01-0.04c0.09-0.31,0.28-0.78,0.65-1.27c0.71-0.94,1.83-1.58,3.24-1.85
				c0.01,0,0.02,0,0.02,0.01C36.73,66.51,36.73,66.52,36.72,66.53 M31.63,69.78c-0.1,0.11-0.13,0.3-0.09,0.46
				c0.05,0.16,0.16,0.27,0.29,0.27h0c0,0,0.34,0,0.79,0.08c0.3,0.05,0.58,0.13,0.83,0.23c0.01,0,0.01,0.01,0.02,0.03
				c0,0.01,0,0.02-0.01,0.03c-0.32,0.22-0.65,0.4-0.98,0.56c-0.72,0.33-1.34,0.45-1.86,0.45c-0.45,0-0.82-0.09-1.09-0.2
				c-0.01,0-0.02-0.02-0.02-0.03c0.13-0.87,0.73-3.02,3.49-4.27c0.01,0,0.02,0,0.02,0.01c0.01,0.01,0.01,0.02,0,0.03
				C32.84,67.97,32.45,68.83,31.63,69.78 M59.75,91.82c0.07-1.46,0.45-2.52,0.76-3.16c0-0.01,0.01-0.02,0.02-0.01
				c0.01,0,0.02,0.01,0.02,0.02c0.22,0.91,0.34,1.78,0.36,2.6c0.02,0.83-0.06,1.6-0.23,2.31c-0.21,0.83-0.51,1.37-0.64,1.57
				c-0.01,0.01-0.01,0.01-0.02,0.01c0,0-0.01,0-0.01,0c-0.78-0.65-1.38-1.69-1.79-3.08c-0.13-0.43-0.23-0.88-0.31-1.34
				c0-0.01,0-0.02,0.01-0.03c0.01-0.01,0.02-0.01,0.02,0c0.69,0.55,1.26,1.37,1.26,1.38c0.08,0.12,0.21,0.17,0.33,0.11
				C59.66,92.13,59.74,91.99,59.75,91.82 M58.52,87.26c-0.04-1.46,0.26-2.57,0.51-3.24c0-0.01,0.01-0.02,0.02-0.02
				c0.01,0,0.02,0.01,0.02,0.02c0.29,0.87,0.48,1.73,0.56,2.54c0.09,0.82,0.07,1.6-0.05,2.32c-0.14,0.85-0.41,1.43-0.51,1.65
				c0,0.01-0.01,0.01-0.02,0.01c0,0-0.01,0-0.01,0c-0.83-0.54-1.5-1.49-2.02-2.82c-0.16-0.41-0.3-0.84-0.41-1.29
				c0-0.01,0-0.02,0.01-0.03c0.01-0.01,0.02-0.01,0.02,0c0.73,0.46,1.36,1.19,1.36,1.2c0.09,0.11,0.22,0.14,0.34,0.06
				C58.45,87.57,58.52,87.42,58.52,87.26 M56.8,83.38L56.8,83.38c0.11-0.08,0.17-0.25,0.15-0.42c-0.17-1.44,0.03-2.59,0.22-3.29
				c0-0.01,0.01-0.02,0.02-0.02c0.01,0,0.02,0,0.02,0.01c0.36,0.83,0.63,1.65,0.78,2.44c0.16,0.8,0.21,1.58,0.15,2.32
				c-0.07,0.87-0.28,1.48-0.36,1.71c0,0.01-0.01,0.02-0.02,0.02c0,0,0,0-0.01,0c-0.93-0.43-1.71-1.28-2.32-2.52
				c-0.19-0.4-0.36-0.83-0.51-1.27c0-0.01,0-0.02,0-0.03c0.01-0.01,0.01-0.01,0.02-0.01c0.8,0.3,1.48,1.03,1.49,1.03
				C56.55,83.45,56.69,83.47,56.8,83.38 M54.49,79.42c0.11,0.1,0.25,0.1,0.36,0c0.11-0.1,0.15-0.29,0.11-0.45
				c-0.3-1.29-0.25-2.49-0.16-3.26c0-0.01,0.01-0.02,0.02-0.02c0.01,0,0.02,0,0.02,0.01c0.45,0.72,0.8,1.47,1.04,2.2
				c0.25,0.76,0.4,1.51,0.43,2.25c0.04,0.83-0.08,1.46-0.15,1.76c0,0.01-0.01,0.02-0.02,0.02c0,0,0,0,0,0
				c-0.91-0.23-1.76-0.9-2.53-1.99c-0.26-0.36-0.49-0.76-0.71-1.18c0-0.01-0.01-0.02,0-0.03c0-0.01,0.01-0.02,0.02-0.01
				C53.8,78.79,54.48,79.42,54.49,79.42 M52.18,75.9c0.12,0.06,0.26,0.02,0.34-0.11c0.09-0.13,0.1-0.31,0.04-0.47
				c-0.5-1.29-0.59-2.46-0.57-3.21c0-0.01,0.01-0.02,0.01-0.03c0.01,0,0.02,0,0.02,0c0.52,0.62,0.95,1.28,1.28,1.96
				c0.34,0.69,0.57,1.41,0.7,2.15c0.15,0.86,0.11,1.56,0.09,1.81c0,0.01-0.01,0.02-0.02,0.02c-0.02,0-0.04,0-0.05,0
				c-1.03,0-1.97-0.75-2.59-1.38c-0.31-0.32-0.61-0.67-0.89-1.07c-0.01-0.01-0.01-0.02,0-0.03c0-0.01,0.01-0.02,0.02-0.02
				c0.04,0,0.08,0,0.12,0C51.46,75.52,52.18,75.89,52.18,75.9 M51.27,72.69c0.24,0.83,0.27,1.62,0.27,2.01
				c0,0.02-0.01,0.03-0.02,0.03c-0.05,0-0.11,0.01-0.16,0.01c-1.27,0-2.74-1.14-3.53-1.84c-0.01-0.01-0.01-0.02-0.01-0.03
				c0-0.01,0.01-0.02,0.02-0.02c0.8-0.21,1.57,0.03,1.57,0.03c0.13,0.04,0.26-0.03,0.33-0.18c0.07-0.15,0.06-0.34-0.02-0.48
				c-0.5-0.84-0.81-1.8-0.98-2.47c0-0.01,0-0.02,0.01-0.03c0.01-0.01,0.01-0.01,0.02-0.01C50.01,70.27,50.86,71.27,51.27,72.69
				 M28.29,67.69c0.06-0.03,0.12-0.06,0.18-0.09c0.74-0.35,1.45-0.58,1.81-0.69c0.82-0.25,1.4-0.73,1.43-0.75
				c0.07-0.06,0.11-0.18,0.09-0.3c-0.02-0.11-0.09-0.2-0.18-0.22l-3.65-0.71l3.65-0.72c0.1-0.02,0.18-0.14,0.18-0.28
				c0-0.14-0.08-0.26-0.18-0.28c-0.01,0-0.79-0.16-1.61-0.66c-0.24-0.15-0.45-0.3-0.64-0.44c-0.32-0.23-0.63-0.46-1.05-0.63
				c0.06,0,0.13,0.01,0.19,0.01c0.79,0.06,1.51,0.21,1.87,0.3c0.83,0.19,1.5,0.04,1.53,0.04c0.09-0.02,0.16-0.11,0.17-0.23
				c0.02-0.12-0.02-0.23-0.1-0.29l-3.17-2.52l3.58,1.2c0.1,0.04,0.21-0.04,0.25-0.17c0.04-0.13,0-0.28-0.09-0.35
				c-0.01-0.01-0.68-0.56-1.3-1.43c-0.18-0.25-0.32-0.49-0.47-0.73c-0.23-0.38-0.45-0.75-0.79-1.12c0.06,0.04,0.12,0.07,0.18,0.11
				c0.71,0.46,1.33,0.97,1.64,1.23c0.71,0.61,1.38,0.81,1.41,0.82c0.09,0.03,0.18-0.02,0.22-0.12c0.05-0.1,0.04-0.23-0.01-0.32
				l-2.21-3.94l2.97,2.94c0.08,0.08,0.2,0.07,0.27-0.03c0.07-0.1,0.08-0.26,0.02-0.37c-0.05-0.09-0.49-0.91-0.79-1.99
				c-0.09-0.33-0.16-0.63-0.22-0.92c-0.1-0.47-0.2-0.92-0.4-1.44c0.04,0.06,0.09,0.13,0.13,0.19c0.53,0.79,0.95,1.58,1.16,1.98
				c0.47,0.9,1,1.42,1.06,1.48c0.07,0.07,0.17,0.07,0.24,0c0.07-0.07,0.11-0.19,0.08-0.3l-0.92-4.77l1.9,4.23
				c0.05,0.12,0.16,0.17,0.26,0.11c0.1-0.05,0.15-0.19,0.12-0.33c-0.01-0.04-0.19-1.06-0.16-2.25c0.01-0.35,0.03-0.66,0.06-0.96
				c0.04-0.49,0.08-0.96,0.04-1.54c0.02,0.08,0.05,0.16,0.07,0.24c0.26,1,0.43,1.95,0.51,2.42c0.18,1.07,0.52,1.83,0.56,1.91
				c0.05,0.1,0.14,0.15,0.22,0.13c0.09-0.02,0.15-0.12,0.17-0.24l0.51-4.84l0.53,4.84c0.02,0.14,0.11,0.24,0.21,0.24
				c0.1,0,0.19-0.1,0.21-0.24c0.01-0.04,0.12-1.07,0.49-2.16c0.11-0.32,0.22-0.59,0.32-0.86c0.18-0.43,0.34-0.85,0.47-1.4
				c0,0.09,0,0.17-0.01,0.26c-0.05,1.05-0.16,2.02-0.22,2.5c-0.14,1.11-0.03,2.01-0.03,2.05c0.01,0.12,0.08,0.21,0.17,0.23
				c0.09,0.02,0.17-0.03,0.22-0.13l1.89-4.23l-0.9,4.78c-0.03,0.13,0.03,0.28,0.12,0.33c0.1,0.05,0.21,0,0.26-0.12
				c0.04-0.1,0.44-0.95,1.07-1.74c0.19-0.24,0.37-0.43,0.55-0.63c0.29-0.31,0.56-0.61,0.84-1.05c-0.03,0.08-0.05,0.16-0.08,0.23
				c-0.34,0.95-0.72,1.79-0.92,2.2c-0.45,0.95-0.61,1.84-0.61,1.88c-0.02,0.11,0.02,0.23,0.09,0.3c0.07,0.06,0.17,0.06,0.24-0.01
				l2.95-2.95l-2.2,3.96c-0.06,0.11-0.05,0.27,0.02,0.37c0.07,0.1,0.19,0.11,0.27,0.03c0.01-0.01,0.65-0.63,1.49-1.06
				c0.24-0.12,0.46-0.21,0.68-0.3c0.35-0.14,0.69-0.27,1.08-0.54c-0.05,0.06-0.09,0.12-0.14,0.18c-0.59,0.7-1.18,1.28-1.48,1.56
				c-0.69,0.65-1.09,1.39-1.1,1.42c-0.05,0.1-0.05,0.23,0,0.32c0.05,0.1,0.14,0.14,0.23,0.11l3.57-1.22l-3.16,2.54
				c-0.09,0.07-0.13,0.22-0.09,0.35c0.04,0.13,0.14,0.2,0.25,0.17c0.08-0.03,0.82-0.25,1.68-0.21c0.26,0.01,0.49,0.04,0.72,0.08
				c0.37,0.05,0.72,0.1,1.15,0.05c-0.06,0.03-0.12,0.06-0.18,0.09c-0.75,0.35-1.46,0.58-1.81,0.68c-0.83,0.25-1.4,0.73-1.43,0.75
				c-0.07,0.06-0.11,0.18-0.09,0.3c0.02,0.11,0.09,0.2,0.18,0.22l3.64,0.7l-3.65,0.73c-0.1,0.02-0.18,0.14-0.18,0.28
				c0,0.14,0.08,0.26,0.18,0.28c0.08,0.02,0.83,0.19,1.61,0.66c0.24,0.14,0.44,0.29,0.64,0.44c0.32,0.23,0.63,0.46,1.04,0.64
				c-0.06,0-0.13-0.01-0.19-0.01c-0.79-0.06-1.51-0.22-1.87-0.3l-0.1-0.02c-0.66-0.38-1.34-0.58-2.01-0.59c0-0.01,0-0.02,0-0.02
				c-0.03-0.19-0.13-0.34-0.27-0.4c-0.99-0.46-1.92-0.7-2.76-0.71c-0.31,0-0.61,0.02-0.89,0.08c-0.01-0.05-0.02-0.1-0.04-0.15
				c-0.06-0.17-0.18-0.28-0.32-0.3c-1.04-0.18-1.99-0.17-2.82,0.05c-0.33,0.09-0.64,0.21-0.93,0.36c-0.01-0.12-0.05-0.23-0.11-0.32
				c-0.09-0.13-0.21-0.19-0.34-0.18c-1.05,0.12-1.97,0.4-2.74,0.85c-0.21,0.12-0.4,0.25-0.59,0.4c-0.01-0.14-0.07-0.28-0.15-0.37
				c-0.1-0.11-0.24-0.15-0.37-0.11c-1.02,0.37-1.9,0.9-2.61,1.56l-0.04,0.04c-0.19,0.02-0.38,0.02-0.57,0.01
				c-0.15-0.01-0.66-0.07-0.72-0.07C29.08,67.68,28.72,67.63,28.29,67.69 M29.28,69.1c0.01-0.01,0.02-0.01,0.02,0
				c0.01,0.01,0.01,0.02,0.01,0.03c-0.04,0.75-0.2,1.9-0.8,3.13c-0.07,0.14-0.07,0.32,0,0.46c0.07,0.14,0.19,0.2,0.32,0.17
				c0.01,0,0.79-0.21,1.59-0.13c0.01,0,0.02,0.01,0.02,0.02c0,0.01,0,0.02-0.01,0.03c-0.69,0.73-2.03,1.93-3.47,1.93
				c-0.05,0-0.1,0-0.15,0c-0.01,0-0.02-0.01-0.02-0.03C26.74,73.78,26.91,71.38,29.28,69.1 M24.26,76.21
				c0.12-0.72,0.36-1.44,0.69-2.14c0.34-0.69,0.78-1.36,1.32-1.99c0.01-0.01,0.02-0.01,0.02,0c0.01,0,0.01,0.01,0.01,0.03
				c0.02,0.75-0.06,1.92-0.57,3.22c-0.06,0.15-0.04,0.33,0.04,0.46c0.08,0.13,0.21,0.18,0.33,0.12c0.01,0,0.75-0.34,1.55-0.38
				c0.01,0,0.02,0.01,0.02,0.02c0,0.01,0,0.02-0.01,0.03c-0.3,0.39-0.6,0.75-0.91,1.07c-0.63,0.65-1.55,1.4-2.44,1.4
				c-0.04,0-0.07,0-0.11,0c-0.01,0-0.02-0.01-0.02-0.02C24.17,77.77,24.11,77.08,24.26,76.21 M23.45,75.64
				c0.01-0.01,0.01-0.01,0.02-0.01c0.01,0,0.01,0.01,0.02,0.02c0.11,0.74,0.17,1.9-0.18,3.3c-0.04,0.17,0,0.35,0.11,0.46
				c0.11,0.11,0.25,0.11,0.36,0.01c0.01-0.01,0.68-0.62,1.54-0.71c0.01,0,0.02,0,0.02,0.01c0,0.01,0,0.02,0,0.03
				c-0.56,1.04-1.71,2.84-3.21,3.18h0c-0.01,0-0.02-0.01-0.02-0.02C21.88,81.03,21.58,78.65,23.45,75.64 M20.23,82.09
				c0.18-0.78,0.47-1.59,0.86-2.39c0.01-0.01,0.01-0.01,0.02-0.01c0.01,0,0.02,0.01,0.02,0.02c0.17,0.71,0.34,1.87,0.12,3.31
				c-0.03,0.18,0.04,0.36,0.16,0.44c0.12,0.09,0.27,0.06,0.36-0.07c0.01-0.01,0.64-0.82,1.5-0.98c0.01,0,0.02,0,0.02,0.01
				c0.01,0.01,0.01,0.02,0,0.03c-0.12,0.33-0.32,0.83-0.6,1.35c-0.66,1.21-1.45,2-2.34,2.35c0,0,0,0-0.01,0
				c-0.01,0-0.02-0.01-0.02-0.02c-0.08-0.23-0.27-0.86-0.31-1.74C19.97,83.65,20.05,82.88,20.23,82.09 M18.49,86.54
				c0.09-0.81,0.29-1.66,0.58-2.53c0-0.01,0.01-0.02,0.02-0.02h0c0.01,0,0.02,0.01,0.02,0.02c0.25,0.67,0.54,1.78,0.49,3.25
				c-0.01,0.17,0.06,0.32,0.17,0.39c0.11,0.07,0.24,0.05,0.34-0.06c0.03-0.03,0.68-0.78,1.44-1.22c0.01,0,0.02,0,0.02,0
				c0.01,0.01,0.01,0.02,0.01,0.03c-0.08,0.41-0.19,0.82-0.33,1.21c-0.47,1.27-1.21,2.25-2.2,2.91c0,0-0.01,0-0.01,0
				c-0.01,0-0.01,0-0.02-0.01c-0.13-0.26-0.37-0.83-0.5-1.64C18.41,88.14,18.4,87.36,18.49,86.54 M17.55,88.62
				c0-0.01,0.01-0.02,0.02-0.02c0.01,0,0.02,0,0.02,0.01c0.31,0.62,0.71,1.68,0.79,3.14c0.01,0.17,0.09,0.31,0.21,0.36
				c0.12,0.05,0.25,0,0.33-0.13c0.01-0.01,0.56-0.88,1.32-1.46c0.01-0.01,0.02,0,0.02,0c0.01,0.01,0.01,0.02,0.01,0.03
				c-0.04,0.44-0.11,0.87-0.21,1.29c-0.34,1.38-0.98,2.47-1.91,3.25c0,0-0.01,0-0.01,0c-0.01,0-0.01,0-0.02-0.01
				c-0.12-0.19-0.44-0.73-0.65-1.56c-0.18-0.7-0.27-1.47-0.26-2.3C17.23,90.42,17.34,89.54,17.55,88.62 M16.49,93.46
				c0-0.01,0.01-0.02,0.02-0.02c0.01,0,0.02,0,0.02,0.01c0.37,0.57,0.86,1.56,1.08,2.99c0.02,0.16,0.12,0.29,0.24,0.32
				c0.12,0.03,0.25-0.03,0.31-0.17c0.02-0.04,0.5-0.95,1.14-1.62c0.01-0.01,0.02-0.01,0.02,0c0.01,0,0.01,0.02,0.01,0.03
				c-0.02,0.43-0.06,0.86-0.13,1.29c-0.24,1.41-0.75,2.58-1.52,3.5c0,0-0.01,0.01-0.01,0.01c-0.01,0-0.01,0-0.02-0.01
				c-0.17-0.21-0.51-0.68-0.78-1.43c-0.25-0.67-0.41-1.42-0.47-2.24C16.34,95.29,16.37,94.4,16.49,93.46 M15.94,98.31
				c0-0.01,0.01-0.02,0.02-0.02c0.01,0,0.02,0,0.02,0.01c0.39,0.55,0.91,1.5,1.18,2.92c0.03,0.17,0.14,0.29,0.27,0.31
				c0.13,0.02,0.25-0.08,0.31-0.23c0-0.01,0.34-0.95,0.96-1.69c0.01-0.01,0.02-0.01,0.02,0c0.01,0,0.01,0.02,0.01,0.03
				c0,0.49-0.03,0.98-0.09,1.46c-0.18,1.48-0.62,2.65-1.29,3.48c0,0-0.01,0.01-0.02,0.01c0,0-0.01,0-0.01-0.01
				c-0.15-0.16-0.52-0.63-0.84-1.39c-0.27-0.65-0.45-1.39-0.55-2.21C15.86,100.14,15.86,99.25,15.94,98.31 M15.64,103.4
				c0-0.01,0.01-0.02,0.01-0.03c0.01,0,0.02,0,0.02,0.01c0.08,0.1,0.16,0.2,0.23,0.31c0.34,0.48,0.8,1.31,1.09,2.51
				c0.04,0.18,0.17,0.3,0.32,0.28c0.14-0.01,0.26-0.16,0.28-0.34v0c0-0.01,0.14-1.04,0.79-1.83c0.01-0.01,0.01-0.01,0.02-0.01
				c0.01,0,0.01,0.01,0.01,0.02c0.07,0.57,0.12,1.46,0,2.4c-0.14,1.13-0.5,2.07-1.06,2.79c0,0.01-0.01,0.01-0.02,0.01
				c0,0-0.01,0-0.01-0.01C16.77,108.98,15.46,107.28,15.64,103.4 M15.49,108.34c0.01-0.01,0.02,0,0.02,0
				c0.09,0.09,0.17,0.18,0.25,0.27c0.37,0.43,0.9,1.19,1.28,2.35c0.05,0.15,0.16,0.24,0.28,0.24h0.01c0.12,0,0.23-0.1,0.28-0.26
				c0-0.01,0.34-1.09,0.88-1.95c0.01-0.01,0.01-0.01,0.02-0.01c0.01,0,0.01,0.01,0.02,0.02c0.17,1.04,0.28,3.1-0.87,5.19
				c0,0.01-0.01,0.01-0.02,0.01c0,0-0.01,0-0.01,0c-0.61-0.47-2.03-1.98-2.15-5.84C15.48,108.36,15.49,108.35,15.49,108.34
				 M15.69,113.49c0-0.01,0-0.02,0.01-0.03c0.01-0.01,0.02-0.01,0.02,0c0.51,0.34,1.24,1.01,1.85,2.23c0.07,0.14,0.19,0.2,0.31,0.17
				c0.12-0.03,0.22-0.16,0.24-0.32v0l0.02,0.01l-0.02-0.01c0.01-0.05,0.21-1.2,0.63-2.16c0-0.01,0.01-0.01,0.02-0.01
				c0.01,0,0.02,0.01,0.02,0.02c0.15,0.42,0.26,0.86,0.33,1.31c0.22,1.4,0.05,2.76-0.51,4.04c0,0.01-0.01,0.01-0.02,0.01
				c0,0-0.01,0-0.01,0c-0.18-0.09-0.66-0.36-1.15-0.94c-0.42-0.49-0.78-1.11-1.07-1.84C16.07,115.25,15.84,114.41,15.69,113.49
				 M16.56,118.26c0-0.01,0-0.02,0.01-0.03s0.02-0.01,0.02,0c0.1,0.05,0.2,0.12,0.29,0.18c0.44,0.3,1.09,0.87,1.68,1.86
				c0.08,0.13,0.2,0.19,0.32,0.14c0.12-0.04,0.21-0.18,0.22-0.34c0-0.01,0.13-1.14,0.47-2.13c0-0.01,0.01-0.02,0.02-0.02
				c0.01,0,0.02,0.01,0.02,0.02c0.36,1.06,0.86,3.15,0.14,5.27c0,0.01-0.01,0.02-0.02,0.02c0,0,0,0-0.01,0
				C19.06,122.97,17.4,121.98,16.56,118.26 M18.71,125.33c-0.39-0.64-0.73-1.4-1.01-2.27c0-0.01,0-0.02,0-0.03
				c0.01-0.01,0.01-0.01,0.02-0.01c0.1,0.04,0.21,0.08,0.31,0.14c0.47,0.23,1.16,0.7,1.83,1.59c0.09,0.12,0.22,0.15,0.33,0.09
				c0.12-0.06,0.19-0.21,0.19-0.37c0-0.01,0.02-1.13,0.28-2.16c0-0.01,0.01-0.02,0.02-0.02c0.01,0,0.02,0,0.02,0.01
				c0.17,0.41,0.32,0.84,0.44,1.27c0.38,1.39,0.44,2.71,0.16,3.92c0,0.01-0.01,0.02-0.02,0.02c0,0,0,0,0,0
				c-0.19-0.04-0.69-0.19-1.26-0.64C19.54,126.49,19.1,125.97,18.71,125.33 M19.23,127.59c0-0.01,0-0.02,0-0.03
				c0-0.01,0.01-0.01,0.02-0.01c0.56,0.13,1.41,0.47,2.27,1.39c0.1,0.1,0.23,0.12,0.34,0.04c0.11-0.08,0.17-0.24,0.16-0.41
				c0-0.04-0.09-1.06,0.08-2.14c0-0.01,0.01-0.02,0.02-0.02c0.01,0,0.02,0,0.02,0.01c0.21,0.4,0.39,0.81,0.54,1.23
				c0.34,0.92,0.71,2.33,0.52,3.79c0,0.01-0.01,0.02-0.02,0.02h0c-0.24-0.02-0.72-0.1-1.3-0.44c-0.51-0.3-1-0.75-1.45-1.33
				C20,129.12,19.59,128.42,19.23,127.59 M26.33,135.85c0-0.01-0.31-1-0.38-2.09c0-0.01,0-0.02,0.01-0.03c0.01-0.01,0.02,0,0.02,0
				c0.72,0.8,1.91,2.49,1.84,4.7c0,0.01-0.01,0.02-0.02,0.03c-0.09,0.02-0.25,0.05-0.48,0.05c-0.2,0-0.45-0.02-0.73-0.1
				c-1.03-0.28-2.09-1.09-3.15-2.42c-0.01-0.01-0.01-0.02-0.01-0.03c0-0.01,0.01-0.02,0.02-0.02c0.56-0.1,1.45-0.1,2.48,0.44
				c0.11,0.06,0.25,0.02,0.33-0.1C26.35,136.18,26.37,136,26.33,135.85 M23.53,132.88c0.11,0.09,0.24,0.09,0.35-0.01
				c0.1-0.1,0.15-0.27,0.12-0.44c0-0.01-0.19-1.03-0.1-2.12c0-0.01,0.01-0.02,0.02-0.02c0.01,0,0.02,0,0.02,0.01
				c0.59,0.95,1.56,2.84,1.47,4.84c0,0.01-0.01,0.03-0.02,0.03c-0.04,0-0.09,0-0.15,0c-0.27,0-0.69-0.04-1.19-0.26
				c-0.53-0.23-1.05-0.61-1.54-1.12c-0.48-0.51-0.94-1.16-1.36-1.92c0-0.01-0.01-0.02,0-0.03c0-0.01,0.01-0.02,0.02-0.01
				C21.73,131.86,22.6,132.09,23.53,132.88 M35.58,122.07c-0.1,0.09-0.19,0.18-0.28,0.26c-0.66,0.62-1.07,1.27-1.22,1.95
				c-0.09-0.02-0.17-0.05-0.24-0.08c-0.5-0.22-0.53-0.56-0.54-0.69c-0.01-0.35,0.12-0.66,0.5-1.15c0.45-0.58,0.82-0.86,1.15-0.86
				c0.12,0,0.23,0.04,0.33,0.11c0.16,0.11,0.26,0.23,0.29,0.34C35.58,121.98,35.58,122.02,35.58,122.07 M36.21,125.47
				c-0.2,0.04-0.75,0.13-1.02-0.12c-0.06-0.06-0.13-0.15-0.15-0.39c-0.04-0.57,0.51-1.19,0.85-1.5c0.52-0.49,0.88-0.77,1.18-0.77
				c0.15,0,0.28,0.07,0.41,0.22c0.11,0.12,0.16,0.24,0.16,0.33c-0.01,0.18-0.18,0.46-0.34,0.62
				C36.77,124.34,36.42,124.86,36.21,125.47 M38.83,125.59c-0.2,0.21-0.87,0.77-1.35,0.64c-0.08-0.02-0.19-0.07-0.31-0.23
				c0.22-0.62,0.71-1.04,1.16-1.38c0.58-0.45,0.83-0.19,0.84-0.18c0.17,0.22,0.16,0.35,0.16,0.39c-0.02,0.27-0.31,0.61-0.45,0.73
				C38.85,125.56,38.84,125.57,38.83,125.59 M33.33,121.07c-0.08,0.09-0.15,0.18-0.24,0.29c-0.3,0.39-0.63,0.87-0.76,1.5
				c-0.08-0.01-0.15-0.02-0.21-0.03c-0.33-0.07-0.51-0.21-0.55-0.32c-0.02-0.07-0.09-0.27,0.11-0.61c0.28-0.49,0.89-0.89,1.32-0.89
				c0.04,0,0.08,0,0.12,0.01c0.02,0,0.03,0.01,0.04,0.01C33.2,121.04,33.26,121.05,33.33,121.07 M46.56,121.92
				c-0.15,0.19-0.38,0.29-0.68,0.3c-0.43-0.77-1.54-2.6-2.96-3.52c-0.12-0.08-0.26-0.09-0.39-0.03c-0.13,0.06-0.23,0.18-0.29,0.35
				c-0.06,0.16-0.07,0.35-0.02,0.53c0.04,0.17,0.14,0.31,0.26,0.39c1.2,0.78,2.19,2.4,2.58,3.1c-0.04,0.12-0.09,0.22-0.15,0.31
				c-0.19,0.3-0.48,0.44-0.84,0.44c-0.13-0.38-0.36-0.82-0.69-1.32c-0.44-0.68-1.32-1.51-1.36-1.54c-0.11-0.11-0.25-0.15-0.38-0.12
				c-0.14,0.03-0.25,0.13-0.33,0.28c-0.08,0.15-0.11,0.33-0.09,0.51c0.02,0.18,0.1,0.34,0.21,0.44c0.23,0.21,0.88,0.86,1.17,1.32
				c0.34,0.53,0.48,0.85,0.53,1.01c-0.05,0.12-0.12,0.29-0.23,0.43c-0.18,0.24-0.41,0.33-0.68,0.29c-0.13-0.39-0.42-1.12-0.94-1.9
				c-0.19-0.28-0.51-0.31-0.73-0.06c-0.1,0.12-0.16,0.29-0.17,0.47c-0.01,0.18,0.04,0.36,0.13,0.5c0.36,0.54,0.58,1.04,0.71,1.38
				c-0.08,0.07-0.17,0.13-0.27,0.18c-0.26,0.14-0.54,0.18-0.83,0.14c0.13-0.27,0.21-0.55,0.23-0.83c0.03-0.38-0.03-0.95-0.46-1.52
				c-0.22-0.3-0.66-0.57-1.24-0.45c-0.04-0.42-0.21-0.8-0.5-1.14c-0.47-0.54-1.01-0.69-1.62-0.44v0c-0.09-0.32-0.3-0.73-0.78-1.05
				c-0.43-0.29-0.9-0.33-1.37-0.13c-0.42-0.47-0.97-0.56-1.13-0.58c-0.68-0.12-1.56,0.31-2.15,1.05c-2.93,2.1-6.7,4.37-8.24,5.28
				c-0.8-2.02-1.49-4.21-2.04-6.49c-0.15-0.62-0.29-1.26-0.42-1.91c4.31-0.66,7.78-1.34,10.31-2.01c2.65-0.71,4.36-1.43,5.24-2.22
				c1.01-0.95,1.7-1.41,2.66-1.31c0.23,0.03,0.43,0.06,0.63,0.09c-0.18,0.1-0.36,0.23-0.53,0.39c-0.41,0.38-0.65,0.65-0.87,0.89
				c-0.22,0.24-0.4,0.43-0.68,0.68c-0.19,0.17-0.46,0.34-0.71,0.51c-0.6,0.39-1.07,0.7-1.23,1.25c-0.16,0.59-0.1,1.1,0.2,1.67
				c0.46,0.86,1.21,0.81,1.81,0.76c0.67-0.05,1.49-0.38,2.09-0.84c0.22-0.17,0.4-0.33,0.57-0.48c0.26-0.23,0.48-0.43,0.64-0.47
				c0.01,0,0.02-0.01,0.03-0.01c0.52-0.19,1.11-0.11,1.8,0.25c0.62,0.32,1.23,0.82,1.8,1.31c1.34,1.17,2.34,2.75,2.64,3.24
				C46.77,121.48,46.71,121.73,46.56,121.92 M48.42,121.39c-0.44-0.42-0.75-0.85-0.89-1.07c0,0,0,0-0.01-0.01l-0.02-0.03
				c-0.04-0.06-0.07-0.11-0.07-0.12c-0.46-0.74-1.43-2.15-2.72-3.27c-0.95-0.82-2.71-2.36-4.41-1.74c-0.34,0.1-0.64,0.36-0.98,0.66
				c-0.16,0.14-0.33,0.29-0.52,0.44c-0.53,0.41-1.21,0.63-1.63,0.66c-0.49,0.04-0.79,0.04-0.91-0.19c-0.11-0.21-0.1-0.28-0.09-0.35
				c0.11-0.14,0.51-0.4,0.73-0.54c0.28-0.19,0.57-0.38,0.82-0.59c0.33-0.28,0.54-0.52,0.77-0.76c0.21-0.22,0.44-0.48,0.82-0.83
				c0.51-0.48,1.07-0.5,1.92-0.52l0.02,0c0.13,0,0.26-0.01,0.4-0.01c0.1,0,0.21-0.01,0.32-0.02c0.91-0.05,1.73,0.34,2.97,0.94
				c0.36,0.17,0.77,0.37,1.23,0.58c0.07,0.03,1.74,0.73,4.01,1.46c1.97,0.63,4.88,1.42,7.61,1.67c-0.12,0.59-0.25,1.18-0.39,1.74
				c-0.57,2.37-1.28,4.63-2.13,6.71C53.89,125.46,50.6,123.54,48.42,121.39 M54.79,136c-1.32,1.65-2.44,2.22-3.15,2.42
				c-0.28,0.08-0.53,0.1-0.73,0.1c-0.21,0-0.38-0.03-0.48-0.05c-0.01,0-0.02-0.01-0.02-0.03c-0.04-1.26,0.31-2.48,1.07-3.65
				c0.23-0.36,0.5-0.71,0.79-1.02c0.01-0.01,0.02-0.01,0.02,0s0.01,0.02,0.01,0.03c-0.08,1.05-0.39,2.05-0.39,2.06
				c-0.05,0.15-0.02,0.33,0.06,0.45c0.09,0.12,0.22,0.16,0.33,0.1c1.03-0.54,1.92-0.54,2.48-0.44c0.01,0,0.02,0.01,0.02,0.02
				C54.8,135.98,54.8,135.99,54.79,136 M57.12,131.86c-0.42,0.77-0.88,1.41-1.36,1.92c-0.49,0.51-1.01,0.89-1.54,1.12
				c-0.5,0.22-0.92,0.26-1.19,0.26c-0.06,0-0.11,0-0.15,0c-0.01,0-0.02-0.01-0.02-0.03c-0.06-1.21,0.21-2.47,0.81-3.73
				c0.19-0.39,0.4-0.77,0.64-1.13c0.01-0.01,0.01-0.01,0.02-0.01c0.01,0,0.01,0.01,0.01,0.02c0.07,1.07-0.09,2.15-0.09,2.16
				c-0.02,0.16,0.03,0.33,0.13,0.42c0.1,0.09,0.24,0.1,0.34,0.01c0.93-0.79,1.8-1.02,2.37-1.07c0.01,0,0.02,0.01,0.02,0.02
				S57.13,131.85,57.12,131.86 M57.83,129.7c-0.45,0.58-0.93,1.03-1.45,1.33c-0.6,0.36-1.11,0.43-1.3,0.44h0
				c-0.01,0-0.02-0.01-0.02-0.02c-0.16-1.2,0.01-2.48,0.52-3.82c0.15-0.41,0.34-0.82,0.55-1.22c0.01-0.01,0.01-0.01,0.02-0.01
				c0.01,0,0.01,0.01,0.02,0.02c0.16,1.05,0.08,2.15,0.08,2.16c-0.01,0.17,0.05,0.32,0.16,0.4c0.11,0.08,0.24,0.06,0.34-0.04
				c0.86-0.91,1.71-1.26,2.27-1.39c0.01,0,0.02,0,0.02,0.01c0,0.01,0.01,0.02,0,0.03C58.67,128.42,58.27,129.13,57.83,129.7
				 M59.53,125.26c-0.39,0.64-0.84,1.16-1.32,1.54c-0.54,0.43-1.02,0.58-1.25,0.64c0,0,0,0,0,0c-0.01,0-0.02-0.01-0.02-0.02
				c-0.27-1.22-0.21-2.54,0.17-3.93c0.11-0.42,0.26-0.83,0.42-1.23c0-0.01,0.01-0.02,0.02-0.01c0.01,0,0.02,0.01,0.02,0.02
				c0.25,1.04,0.29,2.13,0.29,2.14c0.01,0.17,0.09,0.31,0.2,0.37c0.12,0.06,0.25,0.01,0.33-0.11c0.68-0.99,1.37-1.45,1.82-1.66
				c0.11-0.05,0.22-0.09,0.33-0.13c0.01,0,0.02,0,0.02,0.01c0.01,0.01,0.01,0.02,0,0.03C60.28,123.83,59.93,124.61,59.53,125.26
				 M60.84,120.63c-0.34,0.69-0.74,1.27-1.2,1.71c-0.53,0.52-1.02,0.73-1.2,0.8c0,0,0,0-0.01,0c-0.01,0-0.02-0.01-0.02-0.02
				c-0.44-1.41-0.31-2.93-0.13-3.95c0.08-0.46,0.19-0.92,0.33-1.38c0-0.01,0.01-0.02,0.02-0.02c0.01,0,0.02,0.01,0.02,0.02
				c0.33,1.01,0.44,2.15,0.45,2.2c0.02,0.16,0.1,0.3,0.22,0.34c0.12,0.05,0.25-0.01,0.32-0.14c0.69-1.14,1.47-1.72,2-2
				c0.01,0,0.02,0,0.02,0.01c0.01,0.01,0.01,0.02,0.01,0.03C61.45,119.14,61.17,119.95,60.84,120.63 M61.79,115.8
				c-0.27,0.74-0.62,1.38-1.03,1.89c-0.46,0.58-0.9,0.87-1.12,0.99c0,0-0.01,0-0.01,0c-0.01,0-0.02,0-0.02-0.01
				c-0.47-1.12-0.64-2.46-0.51-3.97c0.04-0.46,0.11-0.93,0.21-1.39c0-0.01,0.01-0.02,0.02-0.02c0.01,0,0.02,0,0.02,0.01
				c0.42,0.96,0.65,2.14,0.65,2.16c0.03,0.16,0.13,0.28,0.25,0.31c0.12,0.03,0.24-0.05,0.31-0.19c0.58-1.24,1.3-1.94,1.8-2.31
				c0.01,0,0.02,0,0.02,0c0.01,0.01,0.01,0.02,0.01,0.03C62.27,114.22,62.06,115.06,61.79,115.8"/>
			<path class="st4" d="M45.71,67.03c0.68,0.01,1.35,0.21,2.01,0.59l0.1,0.02c0.36,0.09,1.08,0.24,1.87,0.3
				c0.06,0.01,0.13,0.01,0.19,0.01c-0.41-0.18-0.72-0.4-1.04-0.64c-0.2-0.15-0.41-0.3-0.64-0.44c-0.79-0.48-1.53-0.65-1.61-0.66
				c-0.1-0.02-0.18-0.14-0.18-0.28c0-0.14,0.08-0.26,0.18-0.28l3.65-0.73l-3.64-0.7c-0.09-0.02-0.16-0.11-0.18-0.22
				c-0.02-0.12,0.02-0.24,0.09-0.3c0.02-0.02,0.6-0.5,1.43-0.75c0.36-0.1,1.06-0.33,1.81-0.68c0.06-0.03,0.12-0.06,0.18-0.09
				c-0.43,0.05-0.78,0-1.15-0.05c-0.22-0.03-0.45-0.06-0.72-0.08c-0.86-0.04-1.6,0.19-1.68,0.21c-0.1,0.03-0.21-0.04-0.25-0.17
				c-0.04-0.13,0-0.28,0.09-0.35l3.16-2.54l-3.57,1.22c-0.08,0.03-0.18-0.02-0.23-0.11c-0.05-0.1-0.05-0.23,0-0.32
				c0.02-0.03,0.42-0.78,1.1-1.42c0.3-0.28,0.89-0.86,1.48-1.56c0.05-0.06,0.1-0.12,0.14-0.18c-0.38,0.27-0.72,0.4-1.08,0.54
				c-0.22,0.09-0.44,0.17-0.68,0.3c-0.84,0.42-1.48,1.05-1.49,1.06c-0.08,0.08-0.2,0.07-0.27-0.03c-0.07-0.1-0.08-0.25-0.02-0.37
				l2.2-3.96l-2.95,2.95c-0.07,0.07-0.17,0.07-0.24,0.01c-0.07-0.06-0.11-0.18-0.09-0.3c0.01-0.04,0.16-0.93,0.61-1.88
				c0.2-0.41,0.58-1.25,0.92-2.2c0.03-0.08,0.06-0.16,0.08-0.24c-0.28,0.44-0.55,0.74-0.84,1.05c-0.18,0.2-0.36,0.39-0.55,0.62
				c-0.63,0.79-1.03,1.65-1.07,1.74c-0.05,0.12-0.17,0.17-0.26,0.11c-0.1-0.05-0.15-0.19-0.12-0.33l0.9-4.78l-1.89,4.23
				c-0.04,0.1-0.13,0.15-0.22,0.13c-0.09-0.02-0.15-0.11-0.17-0.23c-0.01-0.04-0.12-0.94,0.03-2.05c0.06-0.48,0.17-1.45,0.22-2.5
				c0-0.09,0.01-0.17,0.01-0.26c-0.13,0.55-0.3,0.97-0.47,1.4c-0.11,0.27-0.22,0.54-0.32,0.86c-0.37,1.09-0.49,2.12-0.49,2.16
				c-0.02,0.14-0.1,0.24-0.21,0.24s-0.19-0.1-0.21-0.24l-0.53-4.84l-0.51,4.84c-0.01,0.12-0.08,0.21-0.17,0.24
				c-0.09,0.02-0.18-0.03-0.22-0.13c-0.04-0.08-0.38-0.84-0.56-1.91c-0.08-0.48-0.25-1.43-0.51-2.42c-0.02-0.08-0.04-0.16-0.07-0.24
				c0.04,0.58,0,1.05-0.04,1.54c-0.02,0.3-0.05,0.61-0.06,0.96c-0.03,1.18,0.15,2.2,0.16,2.25c0.03,0.14-0.03,0.27-0.12,0.33
				c-0.1,0.05-0.21,0-0.26-0.12l-1.9-4.23l0.92,4.77c0.02,0.11-0.01,0.24-0.08,0.3c-0.07,0.07-0.17,0.07-0.24,0
				c-0.06-0.06-0.59-0.58-1.06-1.48c-0.21-0.4-0.64-1.19-1.16-1.98c-0.04-0.07-0.09-0.13-0.13-0.19c0.2,0.51,0.3,0.97,0.4,1.44
				c0.06,0.29,0.13,0.59,0.22,0.92c0.3,1.08,0.74,1.9,0.79,1.99c0.06,0.11,0.05,0.27-0.02,0.37c-0.07,0.1-0.19,0.11-0.27,0.03
				l-2.97-2.94l2.21,3.94c0.05,0.09,0.06,0.22,0.01,0.32c-0.05,0.1-0.14,0.15-0.22,0.12c-0.03-0.01-0.69-0.21-1.4-0.82
				c-0.31-0.26-0.93-0.77-1.64-1.23c-0.06-0.04-0.12-0.07-0.18-0.11c0.33,0.37,0.55,0.74,0.78,1.12c0.14,0.24,0.29,0.48,0.47,0.73
				c0.62,0.88,1.29,1.43,1.3,1.43c0.09,0.07,0.13,0.22,0.09,0.35c-0.04,0.13-0.14,0.2-0.25,0.17l-3.58-1.2l3.17,2.52
				c0.08,0.06,0.12,0.18,0.1,0.29c-0.02,0.12-0.09,0.21-0.17,0.23c-0.03,0.01-0.7,0.16-1.53-0.04c-0.36-0.08-1.08-0.23-1.87-0.3
				c-0.06,0-0.13-0.01-0.19-0.01c0.41,0.17,0.72,0.4,1.05,0.63c0.19,0.14,0.4,0.29,0.64,0.44c0.82,0.49,1.6,0.66,1.61,0.66
				c0.1,0.02,0.18,0.14,0.18,0.28c0,0.14-0.08,0.26-0.18,0.28l-3.65,0.72l3.65,0.71c0.09,0.02,0.16,0.11,0.18,0.22
				c0.02,0.11-0.02,0.23-0.09,0.3c-0.02,0.02-0.6,0.51-1.43,0.75c-0.36,0.11-1.07,0.34-1.81,0.69c-0.06,0.03-0.12,0.06-0.18,0.09
				c0.43-0.05,0.78,0,1.15,0.05c0.05,0.01,0.56,0.07,0.72,0.07c0.18,0.01,0.37,0,0.57-0.01l0.04-0.04c0.71-0.66,1.59-1.18,2.61-1.56
				c0.13-0.05,0.27-0.01,0.37,0.11c0.09,0.09,0.14,0.23,0.15,0.37c0.19-0.14,0.38-0.28,0.59-0.4c0.77-0.45,1.69-0.73,2.74-0.85
				c0.13-0.02,0.25,0.05,0.34,0.18c0.06,0.09,0.1,0.2,0.11,0.32c0.29-0.15,0.6-0.27,0.93-0.36c0.83-0.22,1.77-0.24,2.82-0.05
				c0.14,0.02,0.26,0.14,0.32,0.3c0.02,0.05,0.03,0.1,0.04,0.15c0.28-0.06,0.58-0.08,0.89-0.08c0.84,0.01,1.77,0.25,2.76,0.7
				c0.14,0.06,0.24,0.22,0.27,0.4C45.71,67.01,45.71,67.02,45.71,67.03"/>
			<path class="st1" d="M40.4,60.86c3.55-0.75,3.94,0.61,3.94,0.61s0.09,0.31,0.38,0.21c0,0,0.24-0.03,0.12-0.42
				c0,0-0.39-1.55-2.28-1.82c0,0-0.97-0.17-2.04,0.08c-0.31,0.07-0.4,1-0.4,1C40.08,60.95,40.4,60.86,40.4,60.86"/>
			<path class="st1" d="M37.38,61.78c-0.43-0.26-1.42-0.21-1.42-0.21c-1.6,0.07-2.02,1.4-2.02,1.4c-0.14,0.45,0.14,0.49,0.14,0.49
				c0.33,0.11,0.44-0.25,0.44-0.25s0.09-0.38,0.75-0.6c-0.04,0.13-0.06,0.26-0.06,0.41c0,0.61,0.37,1.1,0.82,1.1
				c0.45,0,0.82-0.49,0.82-1.1c0-0.15-0.02-0.3-0.07-0.43c0.23,0.12,0.45,0.33,0.59,0.71c0.06,0.16,0.18,0.22,0.49,0.22
				c0.33,0,0.25-0.29,0.25-0.29C37.91,62.11,37.38,61.78,37.38,61.78"/>
			<path class="st1" d="M40.33,63.52c0.31,0,0.43-0.07,0.49-0.22c0.14-0.38,0.36-0.59,0.59-0.71c-0.04,0.13-0.07,0.28-0.07,0.43
				c0,0.61,0.37,1.1,0.82,1.1c0.45,0,0.82-0.49,0.82-1.1c0-0.14-0.02-0.28-0.06-0.41c0.66,0.22,0.75,0.6,0.75,0.6
				s0.11,0.36,0.44,0.25c0,0,0.28-0.04,0.14-0.49c0,0-0.42-1.33-2.02-1.4c0,0-0.99-0.06-1.42,0.21c0,0-0.53,0.33-0.73,1.46
				C40.08,63.23,40,63.52,40.33,63.52"/>
			<path class="st1" d="M33.46,61.69c0.29,0.1,0.38-0.21,0.38-0.21s0.39-1.37,3.94-0.61c0,0,0.32,0.09,0.28-0.33
				c0,0-0.09-0.93-0.4-1c-1.07-0.25-2.04-0.08-2.04-0.08c-1.89,0.27-2.28,1.82-2.28,1.82C33.22,61.65,33.46,61.69,33.46,61.69"/>
			<path class="st5" d="M54.78,135.95c-0.57-0.1-1.46-0.1-2.48,0.44c-0.12,0.06-0.25,0.02-0.33-0.1c-0.09-0.12-0.11-0.29-0.06-0.45
				c0-0.01,0.31-1.01,0.4-2.06c0-0.01,0-0.02-0.01-0.03c-0.01-0.01-0.02,0-0.02,0c-0.29,0.32-0.56,0.66-0.79,1.03
				c-0.75,1.17-1.11,2.39-1.07,3.65c0,0.01,0.01,0.02,0.02,0.03c0.11,0.02,0.27,0.05,0.48,0.05c0.2,0,0.45-0.02,0.73-0.1
				c0.71-0.19,1.84-0.77,3.15-2.42c0.01-0.01,0.01-0.02,0.01-0.03C54.8,135.96,54.79,135.95,54.78,135.95"/>
			<path class="st5" d="M25.98,133.74c-0.01-0.01-0.02-0.01-0.02,0c-0.01,0.01-0.01,0.02-0.01,0.03c0.07,1.09,0.37,2.08,0.38,2.09
				c0.05,0.15,0.02,0.33-0.06,0.45c-0.09,0.12-0.22,0.16-0.33,0.1c-1.03-0.54-1.92-0.54-2.48-0.44c-0.01,0-0.02,0.01-0.02,0.02
				c0,0.01,0,0.02,0.01,0.03c1.06,1.33,2.12,2.14,3.15,2.42c0.28,0.08,0.53,0.1,0.73,0.1c0.23,0,0.39-0.03,0.48-0.05
				c0.01,0,0.02-0.01,0.02-0.03C27.9,136.22,26.7,134.54,25.98,133.74"/>
			<path class="st5" d="M57.1,131.82c-0.57,0.05-1.44,0.28-2.37,1.07c-0.1,0.09-0.24,0.09-0.34-0.01c-0.1-0.09-0.15-0.26-0.13-0.42
				c0-0.01,0.16-1.08,0.09-2.16c0-0.01-0.01-0.02-0.02-0.02c-0.01,0-0.02,0-0.02,0.01c-0.24,0.36-0.45,0.74-0.64,1.13
				c-0.6,1.26-0.88,2.51-0.81,3.73c0,0.01,0.01,0.03,0.02,0.03c0.04,0,0.09,0,0.15,0c0.27,0,0.69-0.05,1.19-0.26
				c0.53-0.23,1.05-0.61,1.54-1.12c0.48-0.51,0.94-1.15,1.36-1.92c0.01-0.01,0.01-0.02,0-0.03
				C57.12,131.82,57.11,131.81,57.1,131.82"/>
			<path class="st5" d="M59.01,127.55c-0.56,0.13-1.41,0.47-2.27,1.39c-0.1,0.1-0.23,0.12-0.34,0.04c-0.11-0.08-0.17-0.24-0.16-0.4
				c0-0.01,0.07-1.11-0.08-2.16c0-0.01-0.01-0.02-0.02-0.02c-0.01,0-0.02,0-0.02,0.01c-0.21,0.39-0.39,0.8-0.55,1.22
				c-0.5,1.34-0.67,2.62-0.51,3.82c0,0.01,0.01,0.02,0.02,0.02h0c0.19-0.01,0.7-0.08,1.31-0.44c0.51-0.3,1-0.75,1.45-1.33
				c0.44-0.57,0.85-1.28,1.2-2.1c0-0.01,0-0.02,0-0.03C59.02,127.56,59.02,127.55,59.01,127.55"/>
			<path class="st5" d="M60.54,122.89c-0.11,0.03-0.22,0.08-0.33,0.13c-0.45,0.21-1.14,0.66-1.82,1.66
				c-0.08,0.12-0.22,0.17-0.33,0.11c-0.12-0.06-0.2-0.2-0.2-0.37c0-0.01-0.04-1.1-0.29-2.14c0-0.01-0.01-0.02-0.02-0.02
				c-0.01,0-0.02,0-0.02,0.01c-0.17,0.4-0.31,0.81-0.42,1.23c-0.38,1.39-0.44,2.71-0.17,3.93c0,0.01,0.01,0.02,0.02,0.02
				c0,0,0,0,0,0c0.24-0.05,0.71-0.21,1.26-0.64c0.48-0.38,0.93-0.9,1.32-1.54c0.4-0.65,0.74-1.44,1.03-2.34c0-0.01,0-0.02,0-0.03
				C60.56,122.89,60.55,122.88,60.54,122.89"/>
			<path class="st5" d="M61.64,118.2c-0.53,0.28-1.3,0.86-2,2c-0.08,0.13-0.2,0.18-0.32,0.14s-0.21-0.18-0.22-0.34
				c0-0.05-0.12-1.19-0.45-2.2c0-0.01-0.01-0.02-0.02-0.02c-0.01,0-0.02,0.01-0.02,0.02c-0.14,0.45-0.25,0.92-0.33,1.38
				c-0.18,1.02-0.31,2.53,0.13,3.95c0,0.01,0.01,0.02,0.02,0.02c0,0,0,0,0.01,0c0.19-0.07,0.67-0.28,1.2-0.8
				c0.45-0.44,0.85-1.02,1.2-1.71c0.34-0.68,0.62-1.49,0.84-2.4c0-0.01,0-0.02-0.01-0.03C61.66,118.2,61.65,118.2,61.64,118.2"/>
			<path class="st5" d="M62.37,113.25c-0.5,0.37-1.21,1.07-1.8,2.31c-0.07,0.14-0.19,0.21-0.31,0.19c-0.12-0.03-0.22-0.15-0.25-0.31
				c0-0.01-0.23-1.19-0.65-2.15c0-0.01-0.01-0.02-0.02-0.01c-0.01,0-0.02,0.01-0.02,0.02c-0.1,0.46-0.17,0.93-0.21,1.39
				c-0.14,1.51,0.03,2.85,0.51,3.97c0,0.01,0.01,0.01,0.02,0.01c0,0,0.01,0,0.01,0c0.22-0.12,0.66-0.41,1.12-0.99
				c0.41-0.51,0.75-1.15,1.03-1.89c0.27-0.73,0.48-1.58,0.61-2.51c0-0.01,0-0.02-0.01-0.03C62.38,113.25,62.37,113.25,62.37,113.25"
				/>
			<path class="st5" d="M61.1,110.83c-0.05,0.15-0.17,0.24-0.3,0.23c-0.13-0.01-0.23-0.12-0.27-0.28c0-0.01-0.29-1.11-0.8-1.95
				c-0.01-0.01-0.01-0.01-0.02-0.01c-0.01,0-0.01,0.01-0.02,0.02c-0.07,0.47-0.11,0.95-0.11,1.42c-0.02,1.48,0.26,2.75,0.83,3.79
				c0,0.01,0.01,0.01,0.02,0.01c0,0,0.01,0,0.01,0c0.17-0.12,0.61-0.48,1.03-1.14c0.36-0.57,0.65-1.25,0.86-2.03
				c0.21-0.77,0.34-1.64,0.39-2.59c0-0.01,0-0.02-0.01-0.03c-0.01-0.01-0.02,0-0.02,0C62.23,108.72,61.58,109.52,61.1,110.83"/>
			<path class="st5" d="M60.97,106.34c-0.13,0.01-0.24-0.08-0.29-0.23c0-0.01-0.36-0.97-0.91-1.77c-0.01-0.01-0.02-0.01-0.02-0.01
				c-0.01,0-0.01,0.01-0.01,0.03c-0.03,1.21,0.06,3.48,1.07,5c0,0.01,0.01,0.01,0.02,0.01c0,0,0.01,0,0.01,0
				c0.16-0.14,0.57-0.55,0.94-1.27c0.32-0.61,0.55-1.33,0.71-2.13c0.15-0.79,0.22-1.68,0.2-2.63c0-0.01-0.01-0.02-0.01-0.03
				c-0.01,0-0.02,0-0.02,0c-0.43,0.5-1.02,1.37-1.39,2.75C61.2,106.22,61.1,106.33,60.97,106.34"/>
			<path class="st5" d="M60.8,101.51c-0.12,0.02-0.24-0.05-0.31-0.19c0-0.01-0.42-0.9-1-1.6c-0.01-0.01-0.02-0.01-0.02,0
				c-0.01,0.01-0.01,0.02-0.01,0.03c0.09,1.32,0.39,3.71,1.39,4.82c0,0,0.01,0.01,0.01,0.01c0,0,0.01,0,0.01-0.01
				c0.15-0.16,0.53-0.63,0.86-1.4c0.27-0.65,0.45-1.39,0.55-2.21c0.09-0.81,0.09-1.7,0-2.64c0-0.01-0.01-0.02-0.01-0.02
				c-0.01,0-0.02,0-0.02,0.01c-0.39,0.55-0.91,1.5-1.18,2.92C61.02,101.37,60.92,101.49,60.8,101.51"/>
			<path class="st5" d="M60.32,96.82c-0.12,0.03-0.25-0.03-0.32-0.17c0-0.01-0.47-0.9-1.09-1.58c-0.01-0.01-0.02-0.01-0.02,0
				c-0.01,0.01-0.01,0.02-0.01,0.03c0.04,0.48,0.1,0.95,0.18,1.4c0.19,1,0.58,2.4,1.42,3.35c0,0,0.01,0.01,0.01,0.01
				c0.01,0,0.01,0,0.01-0.01c0.14-0.17,0.5-0.66,0.79-1.44c0.25-0.67,0.41-1.42,0.47-2.24c0.06-0.81,0.03-1.7-0.09-2.64
				c0-0.01-0.01-0.02-0.02-0.02c-0.01,0-0.02,0-0.02,0.01c-0.37,0.57-0.86,1.56-1.08,2.99C60.54,96.66,60.45,96.78,60.32,96.82"/>
			<path class="st5" d="M59.54,92.18c-0.12,0.05-0.25,0.01-0.33-0.11c-0.01-0.01-0.57-0.82-1.26-1.38c-0.01-0.01-0.02-0.01-0.02,0
				c-0.01,0.01-0.01,0.02-0.01,0.03c0.08,0.46,0.18,0.92,0.31,1.34c0.41,1.39,1.01,2.43,1.79,3.08c0,0,0.01,0,0.01,0
				c0.01,0,0.01,0,0.02-0.01c0.12-0.2,0.43-0.74,0.64-1.57c0.18-0.7,0.26-1.48,0.23-2.31c-0.02-0.82-0.14-1.69-0.36-2.6
				c0-0.01-0.01-0.02-0.02-0.02c-0.01,0-0.02,0-0.02,0.01c-0.31,0.63-0.69,1.7-0.76,3.16C59.74,91.99,59.66,92.13,59.54,92.18"/>
			<path class="st5" d="M58.01,87.58c-0.01-0.01-0.63-0.74-1.36-1.2c-0.01,0-0.02,0-0.02,0c-0.01,0.01-0.01,0.02-0.01,0.03
				c0.11,0.45,0.25,0.89,0.41,1.29c0.51,1.33,1.19,2.28,2.02,2.82c0,0,0.01,0,0.01,0c0.01,0,0.01,0,0.02-0.01
				c0.11-0.21,0.37-0.8,0.51-1.65c0.12-0.72,0.14-1.51,0.05-2.32c-0.09-0.81-0.27-1.66-0.56-2.54c0-0.01-0.01-0.02-0.02-0.02
				c-0.01,0-0.02,0.01-0.02,0.02c-0.26,0.67-0.56,1.78-0.51,3.24c0,0.17-0.06,0.32-0.18,0.39C58.23,87.72,58.1,87.69,58.01,87.58"/>
			<path class="st5" d="M54.94,82.32c-0.01,0.01-0.01,0.02,0,0.03c0.14,0.44,0.31,0.87,0.51,1.27c0.61,1.24,1.39,2.09,2.31,2.52
				c0,0,0.01,0,0.01,0c0.01,0,0.02-0.01,0.02-0.02c0.09-0.23,0.3-0.84,0.36-1.71c0.06-0.74,0.01-1.52-0.15-2.32
				c-0.16-0.79-0.42-1.61-0.78-2.44c0-0.01-0.01-0.01-0.02-0.01c-0.01,0-0.02,0.01-0.02,0.02c-0.2,0.71-0.39,1.85-0.22,3.29
				c0.02,0.17-0.04,0.34-0.15,0.42c-0.11,0.08-0.25,0.07-0.35-0.04c-0.01-0.01-0.69-0.73-1.49-1.03
				C54.96,82.31,54.95,82.32,54.94,82.32"/>
			<path class="st5" d="M52.91,78.72c0,0.01,0,0.02,0,0.03c0.21,0.42,0.45,0.82,0.71,1.19c0.77,1.09,1.62,1.76,2.53,1.99
				c0,0,0,0,0,0c0.01,0,0.02-0.01,0.02-0.02c0.07-0.3,0.19-0.93,0.15-1.76c-0.03-0.74-0.18-1.5-0.43-2.25
				c-0.25-0.74-0.6-1.48-1.04-2.2c-0.01-0.01-0.01-0.01-0.02-0.01c-0.01,0-0.01,0.01-0.02,0.02c-0.09,0.78-0.14,1.98,0.16,3.26
				c0.04,0.17-0.01,0.35-0.11,0.46c-0.11,0.1-0.25,0.11-0.36,0c-0.01-0.01-0.69-0.64-1.56-0.72C52.92,78.71,52.91,78.71,52.91,78.72
				"/>
			<path class="st5" d="M52.53,75.79c-0.09,0.13-0.22,0.17-0.34,0.11c-0.01,0-0.73-0.37-1.5-0.37c-0.04,0-0.08,0-0.12,0
				c-0.01,0-0.02,0.01-0.02,0.02c0,0.01,0,0.02,0,0.03c0.28,0.39,0.58,0.75,0.89,1.07c0.62,0.63,1.56,1.38,2.59,1.38
				c0.02,0,0.03,0,0.05,0c0.01,0,0.02-0.01,0.02-0.03c0.02-0.26,0.07-0.95-0.09-1.81c-0.13-0.73-0.36-1.45-0.7-2.15
				c-0.33-0.68-0.76-1.34-1.28-1.96c-0.01-0.01-0.02-0.01-0.02,0c-0.01,0-0.01,0.01-0.01,0.02c-0.02,0.75,0.07,1.92,0.57,3.21
				C52.63,75.47,52.61,75.66,52.53,75.79"/>
			<path class="st5" d="M25.23,135.17c0.06,0,0.1,0,0.15,0c0.01,0,0.02-0.01,0.02-0.03c0.09-2-0.88-3.89-1.47-4.84
				c-0.01-0.01-0.01-0.01-0.02-0.01c-0.01,0-0.01,0.01-0.02,0.02c-0.09,1.09,0.1,2.11,0.1,2.12c0.03,0.16-0.01,0.34-0.12,0.44
				c-0.1,0.1-0.24,0.1-0.35,0.01c-0.93-0.8-1.8-1.02-2.37-1.07c-0.01,0-0.02,0-0.02,0.02c0,0.01,0,0.02,0,0.03
				c0.42,0.77,0.88,1.42,1.37,1.93c0.49,0.51,1.01,0.89,1.54,1.12C24.55,135.12,24.97,135.17,25.23,135.17"/>
			<path class="st5" d="M23.19,131.47L23.19,131.47c0.01,0,0.02-0.01,0.02-0.02c0.19-1.46-0.18-2.87-0.52-3.79
				c-0.15-0.42-0.34-0.83-0.54-1.23c-0.01-0.01-0.01-0.01-0.02-0.01c-0.01,0-0.01,0.01-0.02,0.02c-0.17,1.08-0.08,2.09-0.08,2.14
				c0.01,0.17-0.05,0.33-0.16,0.41c-0.11,0.08-0.24,0.07-0.34-0.04c-0.87-0.92-1.72-1.26-2.27-1.39c-0.01,0-0.02,0-0.02,0.01
				c0,0.01,0,0.02,0,0.03c0.36,0.82,0.76,1.53,1.21,2.1c0.45,0.58,0.93,1.03,1.45,1.33C22.46,131.37,22.95,131.45,23.19,131.47"/>
			<path class="st5" d="M21.28,127.51C21.29,127.51,21.29,127.51,21.28,127.51c0.01,0,0.02-0.01,0.02-0.02
				c0.28-1.21,0.22-2.53-0.16-3.92c-0.12-0.43-0.27-0.86-0.44-1.27c0-0.01-0.01-0.02-0.02-0.01c-0.01,0-0.02,0.01-0.02,0.02
				c-0.26,1.03-0.28,2.15-0.28,2.16c0,0.17-0.08,0.31-0.19,0.37c-0.11,0.06-0.25,0.02-0.33-0.09c-0.67-0.9-1.36-1.36-1.83-1.6
				c-0.1-0.05-0.21-0.1-0.31-0.14c-0.01,0-0.02,0-0.02,0.01c-0.01,0.01-0.01,0.02,0,0.03c0.28,0.87,0.63,1.64,1.01,2.27
				c0.39,0.64,0.84,1.16,1.32,1.54C20.59,127.32,21.1,127.47,21.28,127.51"/>
			<path class="st5" d="M19.74,123.23C19.74,123.23,19.74,123.23,19.74,123.23c0.01,0,0.02-0.01,0.03-0.02
				c0.72-2.12,0.22-4.21-0.14-5.27c0-0.01-0.01-0.02-0.02-0.02h0c-0.01,0-0.02,0.01-0.02,0.02c-0.35,0.99-0.47,2.12-0.48,2.13
				c-0.02,0.16-0.11,0.3-0.22,0.34c-0.12,0.04-0.25-0.01-0.32-0.14c-0.59-1-1.24-1.56-1.68-1.86c-0.1-0.07-0.2-0.13-0.29-0.18
				c-0.01,0-0.02,0-0.02,0.01c-0.01,0.01-0.01,0.02-0.01,0.03C17.4,121.97,19.06,122.97,19.74,123.23"/>
			<path class="st5" d="M17.43,117.82c0.5,0.58,0.97,0.85,1.15,0.94c0,0,0.01,0,0.01,0c0.01,0,0.01-0.01,0.02-0.01
				c0.56-1.29,0.74-2.65,0.51-4.05c-0.07-0.45-0.18-0.89-0.33-1.31c0-0.01-0.01-0.02-0.02-0.02c-0.01,0-0.02,0-0.02,0.01
				c-0.42,0.95-0.62,2.11-0.63,2.16l0.02,0.01l-0.02-0.01c-0.03,0.16-0.12,0.29-0.24,0.32c-0.12,0.03-0.24-0.04-0.31-0.17
				c-0.62-1.22-1.35-1.89-1.85-2.23c-0.01-0.01-0.02,0-0.02,0c-0.01,0.01-0.01,0.02-0.01,0.03c0.15,0.93,0.38,1.77,0.67,2.49
				C16.65,116.7,17.01,117.32,17.43,117.82"/>
			<path class="st5" d="M17.63,114.21c0,0,0.01,0,0.01,0c0.01,0,0.01,0,0.02-0.01c1.15-2.09,1.04-4.14,0.87-5.19
				c0-0.01-0.01-0.02-0.02-0.02c-0.01,0-0.02,0-0.02,0.01c-0.54,0.86-0.88,1.94-0.88,1.95c-0.05,0.15-0.16,0.25-0.28,0.26h-0.01
				c-0.12,0-0.23-0.1-0.28-0.24c-0.38-1.15-0.91-1.91-1.28-2.35c-0.08-0.1-0.17-0.19-0.25-0.27c-0.01-0.01-0.02-0.01-0.02,0
				c-0.01,0-0.01,0.02-0.01,0.03C15.61,112.23,17.03,113.74,17.63,114.21"/>
			<path class="st5" d="M17.34,109.52c0,0,0.01,0.01,0.01,0.01c0.01,0,0.01,0,0.02-0.01c0.56-0.72,0.92-1.66,1.06-2.79
				c0.12-0.95,0.06-1.83-0.01-2.4c0-0.01-0.01-0.02-0.01-0.02c-0.01,0-0.02,0-0.02,0.01c-0.65,0.79-0.79,1.82-0.79,1.83
				c-0.02,0.19-0.14,0.33-0.28,0.34c-0.14,0.01-0.27-0.1-0.32-0.28c-0.29-1.2-0.75-2.03-1.09-2.51c-0.07-0.11-0.15-0.21-0.23-0.31
				c-0.01-0.01-0.02-0.01-0.02,0c-0.01,0-0.01,0.01-0.01,0.02C15.46,107.28,16.77,108.98,17.34,109.52"/>
			<path class="st5" d="M16.49,103.16c0.32,0.76,0.69,1.23,0.84,1.39c0,0,0.01,0.01,0.01,0.01c0.01,0,0.01,0,0.01-0.01
				c0.67-0.83,1.1-2,1.29-3.48c0.06-0.47,0.09-0.96,0.09-1.45c0-0.01-0.01-0.02-0.01-0.03c-0.01,0-0.02,0-0.02,0
				c-0.62,0.74-0.96,1.68-0.96,1.69c-0.06,0.16-0.18,0.25-0.31,0.23c-0.13-0.02-0.24-0.14-0.27-0.31c-0.27-1.42-0.79-2.37-1.18-2.92
				c-0.01-0.01-0.02-0.01-0.02-0.01c-0.01,0-0.01,0.01-0.01,0.02c-0.09,0.95-0.09,1.83,0,2.64
				C16.04,101.77,16.22,102.51,16.49,103.16"/>
			<path class="st5" d="M16.87,98.34c0.28,0.75,0.61,1.22,0.78,1.43c0,0,0.01,0.01,0.01,0.01c0.01,0,0.01,0,0.01-0.01
				c0.77-0.92,1.28-2.1,1.52-3.5c0.07-0.42,0.12-0.85,0.13-1.29c0-0.01,0-0.02-0.01-0.03c-0.01,0-0.02,0-0.02,0
				c-0.64,0.67-1.12,1.59-1.14,1.63c-0.07,0.14-0.19,0.2-0.32,0.17c-0.12-0.03-0.22-0.16-0.24-0.32c-0.22-1.43-0.71-2.41-1.08-2.99
				c-0.01-0.01-0.01-0.01-0.02-0.01c-0.01,0-0.01,0.01-0.02,0.02c-0.12,0.94-0.15,1.83-0.09,2.64
				C16.46,96.92,16.62,97.68,16.87,98.34"/>
			<path class="st5" d="M18.13,95.09c0,0.01,0.01,0.01,0.02,0.01c0,0,0.01,0,0.01,0c0.93-0.78,1.57-1.87,1.91-3.24
				c0.1-0.42,0.17-0.86,0.21-1.29c0-0.01,0-0.02-0.01-0.03c-0.01-0.01-0.02-0.01-0.02,0c-0.76,0.58-1.31,1.45-1.32,1.46
				c-0.08,0.13-0.21,0.18-0.33,0.13c-0.12-0.05-0.2-0.19-0.21-0.36c-0.09-1.47-0.48-2.52-0.79-3.14c0-0.01-0.01-0.01-0.02-0.01
				c-0.01,0-0.02,0.01-0.02,0.02c-0.21,0.91-0.32,1.79-0.33,2.61c-0.01,0.83,0.07,1.6,0.26,2.3C17.69,94.36,18,94.9,18.13,95.09"/>
			<path class="st5" d="M19.03,90.51c0,0.01,0.01,0.01,0.02,0.01c0,0,0.01,0,0.01,0c0.99-0.66,1.73-1.64,2.2-2.91
				c0.14-0.39,0.25-0.8,0.33-1.21c0-0.01,0-0.02-0.01-0.03c-0.01-0.01-0.02-0.01-0.02,0c-0.76,0.44-1.42,1.19-1.44,1.22
				c-0.09,0.11-0.23,0.13-0.34,0.06c-0.11-0.07-0.18-0.23-0.17-0.39c0.05-1.47-0.24-2.58-0.49-3.25c0-0.01-0.01-0.02-0.02-0.02
				c-0.01,0-0.02,0.01-0.02,0.02c-0.29,0.87-0.49,1.72-0.58,2.54c-0.09,0.82-0.08,1.6,0.04,2.32C18.66,89.68,18.9,90.24,19.03,90.51
				"/>
			<path class="st5" d="M20.32,86.13c0,0.01,0.01,0.02,0.02,0.02c0,0,0,0,0.01,0c0.9-0.35,1.68-1.14,2.34-2.35
				c0.28-0.52,0.49-1.02,0.6-1.35c0-0.01,0-0.02,0-0.03c-0.01-0.01-0.01-0.01-0.02-0.01c-0.87,0.16-1.5,0.97-1.5,0.98
				c-0.1,0.13-0.24,0.16-0.36,0.07c-0.12-0.09-0.18-0.26-0.16-0.44c0.22-1.44,0.05-2.6-0.12-3.31c0-0.01-0.01-0.02-0.02-0.02
				c-0.01,0-0.02,0-0.02,0.01c-0.39,0.8-0.68,1.61-0.86,2.39c-0.18,0.79-0.26,1.57-0.22,2.3C20.05,85.27,20.24,85.9,20.32,86.13"/>
			<path class="st5" d="M22.12,81.94C22.12,81.94,22.12,81.94,22.12,81.94c1.5-0.34,2.65-2.14,3.21-3.18c0.01-0.01,0.01-0.02,0-0.03
				c0-0.01-0.01-0.02-0.02-0.01c-0.86,0.1-1.53,0.71-1.54,0.72c-0.11,0.1-0.25,0.1-0.36-0.01c-0.11-0.11-0.15-0.29-0.11-0.46
				c0.34-1.4,0.29-2.57,0.18-3.3c0-0.01-0.01-0.02-0.02-0.02c-0.01,0-0.02,0-0.02,0.01c-1.87,3.01-1.56,5.39-1.35,6.27
				C22.1,81.93,22.11,81.94,22.12,81.94"/>
			<path class="st5" d="M24.22,78.04c0.04,0,0.07,0,0.11,0c0.89,0,1.81-0.75,2.44-1.4c0.31-0.32,0.61-0.68,0.91-1.07
				c0.01-0.01,0.01-0.02,0-0.03c0-0.01-0.01-0.02-0.02-0.02c-0.79,0.04-1.54,0.37-1.55,0.38c-0.12,0.05-0.25,0.01-0.33-0.12
				c-0.08-0.13-0.1-0.31-0.04-0.46c0.51-1.31,0.59-2.47,0.57-3.22c0-0.01-0.01-0.02-0.01-0.03c-0.01,0-0.02,0-0.02,0
				c-0.54,0.63-0.99,1.3-1.32,1.99c-0.34,0.69-0.57,1.41-0.69,2.14c-0.15,0.87-0.09,1.55-0.06,1.81
				C24.2,78.03,24.21,78.04,24.22,78.04"/>
			<path class="st5" d="M30.41,72.76c-0.8-0.08-1.58,0.13-1.59,0.13c-0.12,0.03-0.25-0.03-0.32-0.17c-0.07-0.14-0.07-0.32,0-0.46
				c0.6-1.24,0.77-2.38,0.8-3.13c0-0.01,0-0.02-0.01-0.03c-0.01-0.01-0.02,0-0.02,0c-2.37,2.28-2.54,4.68-2.5,5.61
				c0,0.01,0.01,0.03,0.02,0.03c0.05,0,0.1,0.01,0.15,0.01c1.44,0,2.79-1.2,3.47-1.93c0.01-0.01,0.01-0.02,0.01-0.03
				C30.43,72.77,30.42,72.76,30.41,72.76"/>
			<path class="st5" d="M33.45,70.81c-0.25-0.1-0.53-0.18-0.83-0.23c-0.45-0.08-0.78-0.07-0.79-0.08h0c-0.13,0-0.24-0.11-0.29-0.27
				c-0.05-0.16-0.01-0.35,0.09-0.46c0.82-0.95,1.21-1.81,1.39-2.37c0-0.01,0-0.02,0-0.03c-0.01-0.01-0.01-0.01-0.02-0.01
				c-2.76,1.25-3.36,3.4-3.49,4.27c0,0.01,0,0.03,0.02,0.03c0.28,0.11,0.65,0.2,1.1,0.2c0.51,0,1.13-0.12,1.86-0.45
				c0.33-0.15,0.66-0.34,0.98-0.56c0.01-0.01,0.01-0.02,0.01-0.03C33.46,70.82,33.46,70.81,33.45,70.81"/>
			<path class="st5" d="M36.75,69.62c-0.72-0.48-1.53-0.69-1.53-0.69c-0.13-0.03-0.23-0.17-0.25-0.35
				c-0.02-0.18,0.05-0.35,0.17-0.43c0.9-0.6,1.36-1.21,1.59-1.62c0.01-0.01,0.01-0.02,0-0.03c0-0.01-0.01-0.02-0.02-0.01
				c-1.41,0.26-2.53,0.9-3.25,1.85c-0.37,0.49-0.55,0.96-0.65,1.27c0,0.01,0,0.03,0.01,0.04c0.61,0.38,1.26,0.5,1.84,0.5
				c0.39,0,0.76-0.06,1.06-0.13c0.34-0.08,0.68-0.2,1.02-0.34c0.01,0,0.01-0.01,0.01-0.03C36.76,69.63,36.76,69.62,36.75,69.62"/>
			<path class="st5" d="M38.9,68.37c-0.12-0.06-0.2-0.22-0.2-0.4c0-0.18,0.09-0.33,0.22-0.38c0.9-0.37,1.45-0.82,1.76-1.14
				c0.01-0.01,0.01-0.02,0.01-0.03c0-0.01-0.01-0.02-0.02-0.02c-1.39-0.12-2.56,0.19-3.4,0.89c-0.44,0.37-0.7,0.78-0.84,1.05
				c-0.01,0.01,0,0.03,0,0.04c0.94,0.95,2.16,1.18,3.08,1.18c0.29,0,0.55-0.02,0.77-0.05c0.01,0,0.02-0.01,0.02-0.02
				c0-0.01,0-0.02-0.01-0.03C39.67,68.76,38.91,68.37,38.9,68.37"/>
			<path class="st5" d="M42.52,68.7c-0.11-0.1-0.16-0.27-0.12-0.44c0.03-0.17,0.14-0.29,0.26-0.31c0.91-0.15,1.52-0.44,1.87-0.66
				c0.01,0,0.01-0.02,0.01-0.03c0-0.01-0.01-0.02-0.02-0.03c-1.32-0.48-2.51-0.49-3.43-0.03c-0.49,0.25-0.81,0.58-0.99,0.81
				c-0.01,0.01-0.01,0.03,0,0.04c1.15,1.84,2.76,2.17,3.62,2.21h0c0.01,0,0.02-0.01,0.02-0.02c0-0.01,0-0.02,0-0.03
				C43.23,69.36,42.52,68.7,42.52,68.7"/>
			<path class="st5" d="M51.52,74.73c0.01,0,0.02-0.01,0.02-0.03c0-0.39-0.02-1.18-0.27-2.01c-0.41-1.42-1.26-2.42-2.5-2.97
				c-0.01,0-0.02,0-0.02,0.01c-0.01,0.01-0.01,0.02-0.01,0.03c0.17,0.66,0.48,1.63,0.98,2.47c0.08,0.14,0.09,0.33,0.02,0.48
				c-0.07,0.15-0.2,0.22-0.33,0.18c-0.01,0-0.77-0.24-1.57-0.03c-0.01,0-0.02,0.01-0.02,0.02c0,0.01,0,0.02,0.01,0.03
				c0.78,0.7,2.26,1.84,3.53,1.84C51.41,74.73,51.46,74.73,51.52,74.73"/>
			<path class="st5" d="M48.65,71.73c0-0.01,0-0.02-0.01-0.03c-0.69-0.97-1.57-1.42-2.62-1.34c-0.37,0.03-0.75,0.13-1.12,0.28
				c-0.01,0-0.01,0.01-0.01,0.02c0,0.01,0,0.02,0.01,0.03c0.83,0.86,1.71,1.3,2.6,1.3c0.05,0,0.1,0,0.15,0
				c0.43-0.02,0.77-0.15,0.99-0.25C48.65,71.75,48.65,71.74,48.65,71.73"/>
			<path class="st5" d="M43.58,68.76c0,0.01,0,0.02,0.01,0.02c0.53,0.5,1.17,0.75,1.93,0.75c0.32,0,0.65-0.04,1.01-0.13
				c0.56-0.14,1.05-0.37,1.37-0.53c0.01,0,0.01-0.01,0.01-0.02c0-0.01,0-0.02-0.01-0.03c-0.5-0.38-1.02-0.62-1.53-0.74
				c-0.55-0.12-1.1-0.1-1.64,0.07c-0.5,0.16-0.89,0.41-1.13,0.6C43.59,68.74,43.58,68.75,43.58,68.76"/>
			<path class="st6" d="M33.28,95.67c0.17,0.28,0.45,0.41,0.86,0.41h4c-2.4-1.99-3.28-1.63-4.96-0.61
				C33.21,95.55,33.24,95.62,33.28,95.67"/>
			<path class="st6" d="M43.04,93.23c-0.38-0.13-0.73-0.26-1.05-0.43c-1.26-0.67-2.29-1.76-2.34-1.81c-0.25-0.27-0.3-0.76-0.1-1.1
				c0.2-0.34,0.57-0.4,0.82-0.13c0.01,0.01,0.94,0.99,2.04,1.58c0.25,0.13,0.57,0.25,0.91,0.37c0.5,0.18,1.1,0.39,1.62,0.74
				c-0.11-0.88-0.21-1.64-0.32-2.36c-1.61-0.48-2.94-1.93-2.99-2c-0.12-0.13-0.2-0.32-0.21-0.53c-0.01-0.21,0.03-0.41,0.13-0.57
				c0.21-0.33,0.58-0.38,0.83-0.1c0.01,0.01,0.86,0.94,1.93,1.45c-0.43-2.13-1-4.12-1.76-6.09c-0.54-1.41-1.34-2.36-2.37-2.81
				c-0.75-0.33-1.35-0.27-1.36-0.27c-0.02,0-0.04,0-0.06,0c-0.02,0-1.94,0.04-3.15,1.95c-0.01,0.01-0.02,0.03-0.03,0.04
				c-0.22,0.31-0.82,1.25-0.91,1.96c-0.05,0.39,0.03,0.71,0.2,0.84c0.08,0.06,0.4,0.23,0.94-0.28c0.13-0.15,0.22-0.23,0.25-0.26
				c0.26-0.24,0.61-0.17,0.8,0.16c0.19,0.33,0.15,0.8-0.08,1.08c-0.08,0.09-0.15,0.17-0.23,0.24c-0.24,0.27-0.74,0.89-1.28,1.86
				c-0.72,1.3-1.69,3.55-2.18,6.84c-0.01,0.07-0.02,0.13-0.03,0.19c1.66-0.96,3.01-1.36,5.98,1.19c1.16,1,2.5,1.07,2.75,1.08h1.31
				c0.01,0,0.03,0,0.04,0c0.34,0.03,1.32-0.04,1.76-0.68c0.08-0.11,0.14-0.24,0.18-0.38C45.07,94.1,44.44,93.72,43.04,93.23"/>
			<path class="st7" d="M37.28,123.86c0.16-0.16,0.33-0.44,0.34-0.62c0-0.09-0.05-0.2-0.16-0.33c-0.13-0.15-0.26-0.22-0.41-0.22
				c-0.29,0-0.65,0.28-1.18,0.77c-0.33,0.31-0.89,0.93-0.85,1.5c0.02,0.24,0.09,0.33,0.15,0.39c0.27,0.25,0.82,0.16,1.02,0.12
				C36.42,124.86,36.77,124.34,37.28,123.86"/>
			<path class="st7" d="M39.32,124.82c0-0.04,0.01-0.17-0.16-0.39c-0.01-0.01-0.26-0.27-0.84,0.18c-0.44,0.34-0.93,0.76-1.16,1.38
				c0.12,0.17,0.23,0.21,0.31,0.23c0.48,0.13,1.15-0.43,1.35-0.64c0.01-0.01,0.03-0.03,0.04-0.04
				C39,125.43,39.29,125.1,39.32,124.82"/>
			<path class="st7" d="M33.12,121.03c-0.04-0.01-0.08-0.01-0.12-0.01c-0.44,0-1.04,0.4-1.32,0.89c-0.19,0.34-0.13,0.54-0.11,0.61
				c0.04,0.11,0.22,0.25,0.55,0.32c0.07,0.01,0.14,0.03,0.22,0.03c0.13-0.63,0.46-1.11,0.76-1.5c0.09-0.11,0.16-0.2,0.24-0.29
				c-0.07-0.02-0.13-0.03-0.17-0.04C33.14,121.03,33.13,121.03,33.12,121.03"/>
			<path class="st7" d="M33.3,123.51c0.01,0.13,0.03,0.47,0.54,0.69c0.08,0.03,0.16,0.06,0.24,0.08c0.15-0.68,0.56-1.33,1.22-1.95
				c0.09-0.08,0.18-0.17,0.28-0.26c0.01-0.05,0-0.09-0.01-0.13c-0.03-0.11-0.13-0.24-0.29-0.34c-0.11-0.07-0.22-0.11-0.33-0.11
				c-0.33,0-0.7,0.28-1.15,0.86C33.42,122.85,33.28,123.16,33.3,123.51"/>
			<path class="st7" d="M45.88,122.22c0.3-0.01,0.53-0.11,0.68-0.3c0.15-0.19,0.21-0.44,0.23-0.63c-0.3-0.49-1.29-2.07-2.64-3.24
				c-0.57-0.49-1.18-0.99-1.8-1.31c-0.69-0.36-1.28-0.44-1.8-0.25c-0.01,0-0.02,0.01-0.03,0.01c-0.16,0.04-0.38,0.24-0.64,0.47
				c-0.17,0.15-0.36,0.32-0.57,0.48c-0.6,0.46-1.42,0.79-2.09,0.84c-0.6,0.05-1.35,0.1-1.81-0.76c-0.3-0.57-0.36-1.08-0.2-1.67
				c0.15-0.55,0.63-0.86,1.23-1.25c0.25-0.17,0.52-0.34,0.71-0.51c0.28-0.24,0.46-0.44,0.68-0.68c0.22-0.24,0.47-0.51,0.87-0.89
				c0.17-0.16,0.34-0.29,0.53-0.39c-0.19-0.04-0.4-0.07-0.63-0.09c-0.96-0.11-1.65,0.35-2.66,1.31c-0.88,0.79-2.59,1.51-5.24,2.22
				c-2.53,0.68-6,1.35-10.31,2.01c0.13,0.64,0.27,1.28,0.42,1.91c0.55,2.29,1.23,4.47,2.04,6.49c1.53-0.91,5.3-3.18,8.24-5.28
				c0.58-0.74,1.47-1.17,2.15-1.05c0.16,0.02,0.7,0.11,1.13,0.58c0.47-0.2,0.95-0.16,1.37,0.13c0.48,0.32,0.69,0.74,0.78,1.05
				c0.6-0.25,1.15-0.1,1.62,0.44c0.29,0.33,0.46,0.71,0.5,1.14c0.58-0.12,1.02,0.15,1.24,0.45c0.43,0.57,0.49,1.14,0.46,1.52
				c-0.02,0.28-0.1,0.56-0.23,0.83c0.29,0.05,0.57,0,0.83-0.14c0.09-0.05,0.18-0.11,0.27-0.18c-0.13-0.34-0.35-0.84-0.71-1.38
				c-0.09-0.14-0.14-0.31-0.13-0.5c0.01-0.18,0.07-0.35,0.17-0.47c0.21-0.25,0.54-0.23,0.73,0.06c0.52,0.78,0.81,1.51,0.94,1.9
				c0.28,0.04,0.5-0.05,0.68-0.29c0.11-0.14,0.19-0.31,0.23-0.43c-0.05-0.16-0.19-0.48-0.53-1.01c-0.29-0.45-0.94-1.1-1.17-1.32
				c-0.11-0.11-0.19-0.26-0.21-0.44c-0.02-0.18,0.01-0.36,0.09-0.51c0.08-0.15,0.2-0.25,0.33-0.28c0.14-0.03,0.27,0.01,0.38,0.12
				c0.04,0.03,0.92,0.87,1.36,1.54c0.33,0.5,0.56,0.95,0.69,1.32c0.36,0,0.65-0.14,0.84-0.44c0.06-0.09,0.11-0.2,0.15-0.31
				c-0.39-0.7-1.38-2.31-2.58-3.1c-0.12-0.08-0.22-0.22-0.26-0.39s-0.04-0.36,0.02-0.53c0.06-0.17,0.16-0.29,0.29-0.35
				c0.13-0.06,0.27-0.05,0.39,0.03C44.33,119.63,45.45,121.45,45.88,122.22"/>
			<path class="st7" d="M39.33,115.82c0.34-0.3,0.64-0.56,0.98-0.66c1.71-0.62,3.47,0.92,4.41,1.74c1.29,1.12,2.26,2.53,2.72,3.27
				c0.01,0.02,0.03,0.06,0.07,0.12l0.02,0.03c0,0,0,0,0.01,0.01c0.14,0.22,0.45,0.65,0.89,1.07c2.17,2.15,5.47,4.07,6.84,4.82
				c0.84-2.08,1.56-4.34,2.13-6.71c0.14-0.57,0.27-1.15,0.39-1.74c-2.73-0.24-5.65-1.04-7.61-1.67c-2.27-0.72-3.94-1.43-4.01-1.46
				c-0.46-0.21-0.87-0.41-1.23-0.58c-1.24-0.6-2.06-0.99-2.97-0.94c-0.11,0.01-0.22,0.01-0.32,0.02c-0.14,0.01-0.27,0.01-0.4,0.01
				l-0.02,0c-0.85,0.02-1.41,0.04-1.92,0.52c-0.38,0.36-0.61,0.61-0.82,0.83c-0.23,0.25-0.44,0.48-0.77,0.76
				c-0.25,0.21-0.54,0.4-0.82,0.59c-0.22,0.14-0.62,0.41-0.73,0.54c-0.02,0.07-0.02,0.14,0.09,0.35c0.12,0.23,0.43,0.22,0.91,0.19
				c0.43-0.03,1.1-0.25,1.63-0.66C39,116.11,39.16,115.97,39.33,115.82"/>
		</g>
	</g>
</g>
</svg>
